<?xml version="1.0" encoding="UTF-8"?>
<svg xmlns="http://www.w3.org/2000/svg" width="71" height="71" viewBox="0 0 71 71" fill="none">
  <circle cx="35.2709" cy="35.2709" r="35.2709" fill="url(#paint0_linear_1_1928)"></circle>
  <circle cx="35.2709" cy="35.271" r="34.9419" fill="#FEEC8E"></circle>
  <circle cx="35.2709" cy="35.271" r="34.4155" fill="url(#paint1_angular_1_1928)"></circle>
  <circle cx="35.271" cy="35.2709" r="27.5719" fill="url(#paint2_linear_1_1928)"></circle>
  <circle cx="35.2709" cy="35.271" r="27.1112" fill="url(#paint3_linear_1_1928)"></circle>
  <circle cx="35.2709" cy="35.2709" r="26.4532" fill="url(#paint4_linear_1_1928)"></circle>
  <path d="M12.1287 18.2358L11.9802 18.6937L12.4355 17.8649L12.1287 18.2358ZM9.67374 0.714172L9.83824 0.26179L9.42933 0.113097L9.24022 0.504953L9.67374 0.714172ZM10.2032 17.5138L9.86287 17.8541L9.86287 17.8541L10.2032 17.5138ZM13.1877 22.5199L13.4857 22.1419L13.4857 22.1419L13.1877 22.5199ZM21.8041 34.5059H22.2855V34.4329L22.2638 34.3632L21.8041 34.5059ZM21.5271 35.8332L21.0654 35.6971L21.0654 35.6971L21.5271 35.8332ZM20.9858 37.8273L20.5182 37.713L20.5182 37.713L20.9858 37.8273ZM23.8258 53.1828L23.5214 53.5557L23.5214 53.5557L23.8258 53.1828ZM33.5913 55.6925L33.5641 56.1731L33.5641 56.1731L33.5913 55.6925ZM39.1813 57.13L39.3136 57.5928L39.8927 57.4273L39.6036 56.8989L39.1813 57.13ZM38.5074 57.3225L38.3752 56.8597L38.4542 57.8009L38.5074 57.3225ZM40.6735 56.8411L41.0046 57.1906L40.3917 56.4509L40.6735 56.8411ZM38.9888 57.8039L38.9291 57.3262L38.8944 58.2759L38.9888 57.8039ZM41.9612 57.1375L42.2215 57.5423L41.7073 56.7285L41.9612 57.1375ZM41.5881 57.4669L41.2431 57.1313L40.3826 58.016L41.6148 57.9475L41.5881 57.4669ZM42.8878 56.9855L43.3395 57.152L42.5474 56.6452L42.8878 56.9855ZM42.0695 57.9964L41.9751 57.5244L41.9751 57.5244L42.0695 57.9964ZM46.1129 54.6269L45.6321 54.604L45.6321 54.604L46.1129 54.6269ZM45.8241 50.776L46.0284 50.3401L44.7253 49.7293L45.3987 51.0012L45.8241 50.776ZM47.4126 48.1766L46.9313 48.1696L46.9313 48.1696L47.4126 48.1766ZM46.6906 44.2776L46.2124 44.3324L46.236 44.5383L46.4018 44.6626L46.6906 44.2776ZM43.3692 39.0788L42.9298 39.2754L42.9801 39.3879L43.0784 39.4624L43.3692 39.0788ZM44.3319 32.1953L44.703 32.5019L44.703 32.5019L44.3319 32.1953ZM44.642 31.8151L45.016 32.1181L45.016 32.1181L44.642 31.8151ZM49.0974 27.5742L49.3785 27.965L49.3785 27.965L49.0974 27.5742ZM55.7883 17.1287L55.3123 17.0573L55.3123 17.0573L55.7883 17.1287ZM56.8745 12.4082L57.3338 12.5524L57.3338 12.5524L56.8745 12.4082ZM57.3768 7.40512L57.8565 7.36515L57.8477 7.25888L57.7948 7.1663L57.3768 7.40512ZM47.1719 11.7374L47.4343 12.141L47.4548 12.1277L47.4739 12.1123L47.1719 11.7374ZM45.8945 15.0609L46.3573 15.1935L46.3573 15.1935L45.8945 15.0609ZM42.7434 22.8569L43.134 23.1381L43.134 23.1381L42.7434 22.8569ZM38.2925 26.8673L37.8182 26.9497L37.9356 27.625L38.531 27.2854L38.2925 26.8673ZM36.9189 24.5415L36.7036 24.111L35.8934 24.5161L36.6825 24.9609L36.9189 24.5415ZM40.5772 24.8304L40.4885 25.3035L40.87 24.4483L40.5772 24.8304ZM35.265 22.8723L35.26 23.3536L35.26 23.3536L35.265 22.8723ZM34.5602 22.6642L34.0803 22.7011L34.0803 22.7011L34.5602 22.6642ZM36.3413 21.2201L36.3708 21.7006L36.3303 20.7389L36.3413 21.2201ZM27.8403 26.0021L27.4943 26.3367L27.8442 26.6985L28.19 26.3328L27.8403 26.0021ZM25.7031 21.7016L25.2328 21.8042L25.2328 21.8042L25.7031 21.7016ZM24.3668 14.3109L24.8443 14.2499L24.8443 14.2499L24.3668 14.3109ZM23.537 11.7374L23.9582 11.5044L23.9582 11.5044L23.537 11.7374ZM35.2341 27.0928L35.5681 26.7462L35.1043 26.2991L34.807 26.8707L35.2341 27.0928ZM35.0979 27.9957L34.6216 28.0649L34.6922 28.5507L35.1765 28.4706L35.0979 27.9957ZM35.9404 27.8218L36.0567 28.2889L36.834 28.0953L36.2982 27.4998L35.9404 27.8218ZM12.4355 17.8649C9.45296 15.3978 8.43004 12.0906 8.37519 8.91551C8.32015 5.72963 9.24331 2.71355 10.1073 0.923392L9.24022 0.504953C8.32312 2.40525 7.35452 5.56987 7.41261 8.93214C7.47088 12.3052 8.56596 15.9135 11.8219 18.6067L12.4355 17.8649ZM9.86287 17.8541C9.94045 17.9317 10.0417 17.9817 10.0794 18.0005C10.1392 18.0304 10.2101 18.0617 10.2844 18.0927C10.4343 18.155 10.624 18.2266 10.823 18.2986C11.2223 18.443 11.6802 18.5964 11.9802 18.6937L12.2772 17.7779C11.9835 17.6827 11.5364 17.5328 11.1503 17.3932C10.9566 17.3232 10.7835 17.2576 10.6543 17.2038C10.5891 17.1767 10.5414 17.1552 10.5102 17.1396C10.4569 17.1129 10.4949 17.1247 10.5436 17.1734L9.86287 17.8541ZM13.4857 22.1419C12.3151 21.2189 11.5742 20.0055 11.1431 19.0283C10.9282 18.5413 10.7942 18.1217 10.7235 17.8402C10.6874 17.6966 10.6708 17.6009 10.666 17.5555C10.6621 17.5191 10.6695 17.5503 10.6598 17.6066C10.6567 17.6245 10.6489 17.6635 10.628 17.7103C10.6097 17.7516 10.5596 17.8486 10.4448 17.9194C10.3068 18.0046 10.1547 18.0043 10.0391 17.9641C9.94377 17.931 9.88523 17.8765 9.86287 17.8541L10.5436 17.1734C10.5168 17.1465 10.4541 17.0891 10.355 17.0547C10.2356 17.0132 10.0802 17.0132 9.93915 17.1002C9.82146 17.1728 9.76875 17.2733 9.74823 17.3194C9.72522 17.3712 9.71561 17.4166 9.71116 17.4424C9.69594 17.5303 9.70439 17.6169 9.70869 17.6574C9.72023 17.7658 9.7484 17.91 9.78979 18.0748C9.87401 18.41 10.0258 18.881 10.2623 19.4169C10.7337 20.4855 11.5572 21.8473 12.8897 22.8979L13.4857 22.1419ZM22.2638 34.3632C21.5892 32.1895 20.0212 29.6336 18.3315 27.3927C16.6397 25.1491 14.7822 23.1641 13.4857 22.1419L12.8897 22.8979C14.0963 23.8493 15.8971 25.7634 17.5628 27.9724C19.2307 30.1842 20.7193 32.6344 21.3444 34.6486L22.2638 34.3632ZM21.9888 35.9693C22.1652 35.3708 22.2855 34.9762 22.2855 34.5059H21.3227C21.3227 34.8101 21.2523 35.0628 21.0654 35.6971L21.9888 35.9693ZM21.4534 37.9416C21.6759 37.0313 21.8551 36.4232 21.9888 35.9693L21.0654 35.6971C20.9303 36.1556 20.7461 36.7806 20.5182 37.713L21.4534 37.9416ZM24.1302 52.8099C21.9332 51.0164 21.1031 47.8954 20.9187 44.8442C20.7356 41.8133 21.1981 38.986 21.4534 37.9416L20.5182 37.713C20.244 38.8348 19.7678 41.7597 19.9577 44.9023C20.1464 48.0246 21.0011 51.4982 23.5214 53.5557L24.1302 52.8099ZM33.6184 55.2119C31.9823 55.1195 30.2191 55.0191 28.5463 54.6854C26.874 54.3518 25.3337 53.7923 24.1302 52.8099L23.5214 53.5557C24.895 54.677 26.607 55.2802 28.3579 55.6295C30.1083 55.9787 31.9394 56.0813 33.5641 56.1731L33.6184 55.2119ZM39.6036 56.8989C39.1746 56.1149 38.252 55.7607 37.2586 55.5625C36.2382 55.3588 34.9607 55.2877 33.6184 55.2119L33.5641 56.1731C34.93 56.2502 36.1309 56.3191 37.0702 56.5066C38.0364 56.6994 38.5547 56.9875 38.759 57.361L39.6036 56.8989ZM38.6396 57.7853L39.3136 57.5928L39.0491 56.6671L38.3752 56.8597L38.6396 57.7853ZM40.3917 56.4509C40.129 56.6406 39.7775 56.7549 39.4173 56.8122C39.0601 56.8691 38.7352 56.8635 38.5606 56.8441L38.4542 57.8009C38.7129 57.8297 39.1244 57.8337 39.5687 57.763C40.01 57.6927 40.5249 57.5423 40.9554 57.2314L40.3917 56.4509ZM39.0485 58.2815C39.4643 58.2295 39.8826 58.0142 40.2065 57.8079C40.5409 57.5949 40.8321 57.354 41.0046 57.1906L40.3425 56.4917C40.2102 56.617 39.967 56.819 39.6893 56.9959C39.401 57.1795 39.1293 57.3012 38.9291 57.3262L39.0485 58.2815ZM41.7073 56.7285C40.5958 57.4185 39.4592 57.4071 39.0832 57.3319L38.8944 58.2759C39.4779 58.3926 40.8695 58.3818 42.2151 57.5464L41.7073 56.7285ZM41.9332 57.8025C41.967 57.7678 42.0252 57.7103 42.0865 57.6545C42.1538 57.5932 42.202 57.5549 42.2215 57.5423L41.7008 56.7326C41.5358 56.8387 41.3183 57.054 41.2431 57.1313L41.9332 57.8025ZM42.5474 56.6452C42.455 56.7376 42.2891 56.8246 42.0756 56.8898C41.8697 56.9528 41.6699 56.9803 41.5614 56.9863L41.6148 57.9475C41.7952 57.9375 42.0719 57.8976 42.357 57.8105C42.6345 57.7257 42.9741 57.58 43.2282 57.3259L42.5474 56.6452ZM42.1639 58.4684C42.554 58.3904 42.8243 58.0699 42.9763 57.8511C43.1467 57.6057 43.2724 57.3341 43.3395 57.152L42.4361 56.8191C42.3909 56.9419 42.3 57.1371 42.1856 57.3018C42.1289 57.3835 42.075 57.445 42.0287 57.4852C41.9806 57.5269 41.9622 57.527 41.9751 57.5244L42.1639 58.4684ZM45.6321 54.604C45.573 55.8461 44.654 56.5968 43.6585 57.0462C43.1707 57.2664 42.6979 57.3971 42.3764 57.4664C42.2152 57.5012 42.0988 57.5191 42.0438 57.5255C42.0301 57.5271 42.0247 57.5274 42.0257 57.5273C42.0258 57.5273 42.0326 57.5269 42.0433 57.5269C42.0487 57.527 42.059 57.5271 42.0722 57.5281C42.0821 57.5288 42.111 57.5311 42.1473 57.5399C42.1653 57.5443 42.1994 57.5536 42.2395 57.5726C42.2731 57.5885 42.3555 57.6318 42.4232 57.7257C42.5076 57.8428 42.5378 57.9966 42.494 58.1439C42.4588 58.2621 42.3888 58.3328 42.3595 58.3598C42.2998 58.415 42.2404 58.4405 42.2317 58.4444C42.2117 58.4534 42.1956 58.4588 42.1884 58.4612C42.1647 58.469 42.1506 58.4711 42.1639 58.4684L41.9751 57.5244C41.9583 57.5278 41.9236 57.5349 41.8883 57.5464C41.8782 57.5498 41.8597 57.5561 41.8379 57.5659C41.8274 57.5706 41.7668 57.5968 41.7063 57.6526C41.6766 57.68 41.6064 57.7511 41.5712 57.8695C41.5273 58.0171 41.5576 58.1712 41.6422 58.2886C41.71 58.3827 41.7927 58.4262 41.8268 58.4423C41.8673 58.4616 41.9019 58.471 41.9207 58.4756C41.9823 58.4905 42.0352 58.4896 42.0394 58.4897C42.0571 58.4897 42.0728 58.489 42.0839 58.4883C42.1068 58.4869 42.1311 58.4845 42.1544 58.4818C42.2474 58.4711 42.3954 58.4472 42.5794 58.4075C42.9484 58.3279 43.4894 58.1788 44.0546 57.9237C45.1651 57.4224 46.5085 56.4402 46.5938 54.6498L45.6321 54.604ZM45.3987 51.0012C45.3987 51.0011 45.4016 51.0067 45.4068 51.0195C45.4119 51.032 45.4184 51.0493 45.4259 51.0719C45.441 51.1175 45.4588 51.1798 45.4776 51.2607C45.5152 51.4225 45.5548 51.6485 45.5875 51.9464C45.6528 52.5419 45.689 53.4107 45.6321 54.604L46.5938 54.6498C46.6525 53.4169 46.6164 52.4967 46.5445 51.8414C46.4751 51.209 46.3676 50.7736 46.2496 50.5507L45.3987 51.0012ZM46.9313 48.1696C46.9126 49.4615 46.6483 50.0186 46.4464 50.2326C46.2836 50.4051 46.1288 50.3871 46.0284 50.3401L45.6198 51.2118C46.0329 51.4055 46.6531 51.4163 47.1466 50.8933C47.6009 50.4118 47.8742 49.5488 47.8939 48.1836L46.9313 48.1696ZM46.4018 44.6626C46.3772 44.6442 46.416 44.6671 46.4858 44.8081C46.5495 44.9367 46.6247 45.1345 46.6951 45.4186C46.8358 45.9865 46.9501 46.8699 46.9313 48.1696L47.8939 48.1836C47.9136 46.8261 47.7953 45.8563 47.6296 45.1871C47.5467 44.8527 47.4502 44.586 47.3484 44.3806C47.2528 44.1876 47.1323 44.0071 46.9794 43.8925L46.4018 44.6626ZM43.0784 39.4624C45.3506 41.1849 46.1134 43.4703 46.2124 44.3324L47.1688 44.2227C47.0431 43.1272 46.1629 40.5926 43.66 38.6952L43.0784 39.4624ZM43.9608 31.8888C43.6789 32.23 43.4307 32.7466 43.227 33.3195C43.0196 33.9028 42.8445 34.5846 42.7261 35.2862C42.494 36.66 42.4597 38.2246 42.9298 39.2754L43.8086 38.8823C43.4604 38.1039 43.4501 36.7803 43.6753 35.4465C43.7855 34.7942 43.9474 34.1673 44.1341 33.642C44.3246 33.1062 44.5276 32.7142 44.703 32.5019L43.9608 31.8888ZM44.268 31.512C44.1608 31.6443 44.0595 31.7693 43.9608 31.8888L44.703 32.5019C44.8051 32.3783 44.9093 32.2497 45.016 32.1181L44.268 31.512ZM48.8163 27.1835C46.3236 28.9765 45.1469 30.4274 44.268 31.512L45.016 32.1181C45.8717 31.0621 46.986 29.6859 49.3785 27.965L48.8163 27.1835ZM55.3123 17.0573C54.4735 22.6492 51.5118 25.2446 48.8163 27.1835L49.3785 27.965C52.1705 25.9567 55.3703 23.1608 56.2644 17.2001L55.3123 17.0573ZM56.4153 12.264C56.0916 13.2949 55.6796 14.6085 55.3123 17.0573L56.2644 17.2001C56.6215 14.8196 57.018 13.5582 57.3338 12.5524L56.4153 12.264ZM56.8971 7.4451C57.0076 8.76996 56.9913 9.62903 56.8995 10.3202C56.8077 11.011 56.6387 11.5524 56.4153 12.264L57.3338 12.5524C57.5555 11.8463 57.7497 11.2309 57.8538 10.4469C57.9579 9.6633 57.9703 8.72968 57.8565 7.36515L56.8971 7.4451ZM47.4739 12.1123C50.1545 9.95357 52.5604 8.73137 54.3247 8.13164C55.2093 7.83094 55.919 7.69134 56.4131 7.66227C56.6621 7.64762 56.8359 7.66238 56.942 7.68702C57.07 7.71674 57.0127 7.73806 56.9589 7.64395L57.7948 7.1663C57.6447 6.9037 57.3663 6.79717 57.1597 6.74923C56.9314 6.69622 56.6572 6.68352 56.3565 6.70121C55.751 6.73683 54.9534 6.90109 54.0148 7.22014C52.1328 7.85992 49.6288 9.14081 46.87 11.3625L47.4739 12.1123ZM46.3573 15.1935C46.6069 14.3228 46.8219 13.5737 47.0231 13.0091C47.1237 12.7268 47.2154 12.5065 47.2993 12.3478C47.3918 12.1729 47.4431 12.1352 47.4343 12.141L46.9096 11.3338C46.7013 11.4692 46.5552 11.6955 46.4483 11.8978C46.3328 12.1161 46.2231 12.386 46.1162 12.6859C45.9025 13.2857 45.6782 14.0686 45.4318 14.9282L46.3573 15.1935ZM43.134 23.1381C44.7153 20.9419 45.6633 17.614 46.3573 15.1935L45.4318 14.9282C44.7237 17.3981 43.8159 20.5435 42.3528 22.5756L43.134 23.1381ZM38.531 27.2854C39.8928 26.5086 41.6756 25.1637 43.134 23.1381L42.3528 22.5756C40.9912 24.4667 39.3226 25.7254 38.054 26.4492L38.531 27.2854ZM36.6825 24.9609C37.031 25.1573 37.6127 25.7672 37.8182 26.9497L38.7667 26.7848C38.5196 25.3629 37.7928 24.4815 37.1552 24.1222L36.6825 24.9609ZM40.666 24.3572C40.144 24.2594 39.3317 24.1272 38.5869 24.0484C38.2154 24.0091 37.8507 23.9821 37.5431 23.9808C37.3895 23.9801 37.2412 23.9858 37.1088 24.0018C36.9855 24.0168 36.8357 24.045 36.7036 24.111L37.1342 24.9721C37.1176 24.9804 37.1367 24.9682 37.2245 24.9576C37.3031 24.9481 37.4082 24.9429 37.539 24.9435C37.8002 24.9446 38.1287 24.9681 38.4857 25.0058C39.1978 25.0811 39.9836 25.2088 40.4885 25.3035L40.666 24.3572ZM35.26 23.3536C35.7233 23.3585 36.3704 23.3659 37.203 23.5957C38.0356 23.8256 39.0723 24.2836 40.2845 25.2125L40.87 24.4483C39.565 23.4483 38.4175 22.9323 37.4592 22.6677C36.501 22.4032 35.7505 22.396 35.2701 22.3909L35.26 23.3536ZM34.0803 22.7011C34.0924 22.8592 34.1575 23.0183 34.2935 23.1398C34.4131 23.2467 34.5505 23.2903 34.6468 23.3117C34.8267 23.3516 35.0612 23.3515 35.26 23.3536L35.2701 22.3909C35.1559 22.3897 35.0667 22.3887 34.9915 22.3852C34.9144 22.3815 34.8742 22.376 34.8555 22.3719C34.8333 22.3669 34.8791 22.372 34.9348 22.4218C34.9655 22.4492 34.9932 22.4849 35.0128 22.527C35.0319 22.568 35.0384 22.6039 35.0402 22.6273L34.0803 22.7011ZM36.3117 20.7397C36.1099 20.7521 35.8736 20.8392 35.6725 20.9316C35.4549 21.0315 35.2158 21.1671 34.9932 21.3238C34.7731 21.4787 34.551 21.6668 34.3822 21.8766C34.2225 22.075 34.0543 22.3632 34.0803 22.7011L35.0402 22.6273C35.0421 22.6524 35.0302 22.6069 35.1323 22.4801C35.2252 22.3646 35.3702 22.2358 35.5473 22.1112C35.7217 21.9884 35.9098 21.882 36.0743 21.8064C36.1564 21.7687 36.2279 21.7409 36.2849 21.7227C36.3466 21.7029 36.3731 21.7005 36.3708 21.7006L36.3117 20.7397ZM28.19 26.3328C28.957 25.5218 30.2353 24.3712 31.7168 23.4179C33.208 22.4584 34.8483 21.7356 36.3522 21.7014L36.3303 20.7389C34.5641 20.779 32.7431 21.6127 31.1959 22.6083C29.639 23.6101 28.3019 24.8134 27.4905 25.6713L28.19 26.3328ZM25.2328 21.8042C25.6685 23.802 26.4698 25.2776 27.4943 26.3367L28.1863 25.6674C27.3044 24.7557 26.577 23.4494 26.1735 21.599L25.2328 21.8042ZM23.8893 14.3719C24.0318 15.4864 24.2831 17.4491 25.2328 21.8042L26.1735 21.599C25.2304 17.2748 24.9836 15.3401 24.8443 14.2499L23.8893 14.3719ZM23.1158 11.9704C23.4408 12.558 23.5879 12.8642 23.6788 13.1589C23.771 13.4576 23.8113 13.7612 23.8893 14.3719L24.8443 14.2499C24.7694 13.6642 24.7205 13.2697 24.5988 12.8752C24.4759 12.4766 24.2846 12.0943 23.9582 11.5044L23.1158 11.9704ZM9.50924 1.16655C17.8471 4.19851 21.9062 9.7839 23.1158 11.9704L23.9582 11.5044C22.6647 9.16607 18.4443 3.39128 9.83824 0.26179L9.50924 1.16655ZM34.807 26.8707C34.6632 27.1474 34.5513 27.5818 34.6216 28.0649L35.5743 27.9264C35.5355 27.6599 35.6023 27.4282 35.6612 27.3148L34.807 26.8707ZM36.2982 27.4998C36.0803 27.2576 35.8378 27.0061 35.5681 26.7462L34.9001 27.4394C35.1539 27.684 35.3804 27.9191 35.5825 28.1437L36.2982 27.4998ZM35.1765 28.4706C35.4832 28.4199 35.7778 28.3583 36.0567 28.2889L35.8241 27.3547C35.5698 27.418 35.3004 27.4743 35.0194 27.5208L35.1765 28.4706Z" fill="url(#paint5_linear_1_1928)"></path>
  <path d="M11.9363 17.9469C5.69784 12.7867 7.70031 4.11575 9.48136 0.425293C17.9533 3.50602 22.0931 9.18611 23.3446 11.4485C24.5962 13.7109 23.5372 12.3631 25.5108 21.4127C27.0896 28.6524 33.5495 28.3444 36.5821 27.2854C37.7053 26.9163 40.4715 25.4562 42.551 22.568C45.1504 18.9578 46.0168 12.0743 46.9796 11.4485C52.419 7.06811 56.7994 6.44233 57.1845 7.11624C57.5696 11.7373 56.4624 11.0634 55.596 16.8398C54.7295 22.6161 51.6488 25.3118 48.905 27.2854C46.1612 29.259 45.0541 30.7993 44.1395 31.9065C43.2249 33.0136 42.3585 36.9608 43.1768 38.79C45.5644 40.5999 46.3859 43.0099 46.4982 43.9887C46.7549 44.1812 47.2588 45.2306 47.2202 47.8877C47.1817 50.5448 46.1452 50.7278 45.6317 50.4871C45.7762 50.7599 46.0361 51.9119 45.9206 54.338C45.7762 57.3706 41.3957 57.8038 41.8771 57.7075C42.2622 57.6305 42.5831 57.0015 42.6954 56.6967C42.3488 57.0433 41.6846 57.162 41.3957 57.178C41.4751 57.0964 41.6568 56.9206 41.7688 56.8486C40.5403 57.6113 39.2762 57.6109 38.7964 57.515C39.4125 57.438 40.1763 56.8411 40.4812 56.5523C39.788 57.0529 38.7483 57.0818 38.315 57.0336L38.9889 56.8411C37.593 54.2899 28.3508 56.7448 23.6334 52.8939C18.9161 49.043 20.2639 39.7045 20.7934 37.5384C21.3229 35.3723 21.6117 34.8909 21.6117 34.217C20.312 30.0291 15.4984 24.2046 12.9953 22.2311C10.4922 20.2575 9.86645 17.0805 10.0109 17.2249C10.1264 17.3404 11.3426 17.7544 11.9363 17.9469Z" fill="url(#paint6_angular_1_1928)"></path>
  <mask id="mask0_1_1928" style="mask-type:alpha" maskUnits="userSpaceOnUse" x="7" y="0" width="51" height="58">
    <path d="M11.9362 17.9469C5.69772 12.7867 7.70019 4.11575 9.48123 0.425293C17.9532 3.50602 22.093 9.18611 23.3445 11.4485C24.596 13.7109 23.537 12.3631 25.5106 21.4127C27.0895 28.6524 33.5494 28.3444 36.582 27.2854C37.7052 26.9163 40.4714 25.4562 42.5509 22.568C45.1503 18.9578 46.0167 12.0743 46.9794 11.4485C52.4188 7.06811 56.7993 6.44233 57.1843 7.11624C57.5694 11.7373 56.4623 11.0634 55.5958 16.8398C54.7294 22.6161 51.6487 25.3118 48.9049 27.2854C46.1611 29.259 45.054 30.7993 44.1394 31.9065C43.2248 33.0136 42.3584 36.9608 43.1767 38.79C45.5642 40.5999 46.3858 43.0099 46.4981 43.9887C46.7548 44.1812 47.2586 45.2306 47.2201 47.8877C47.1816 50.5448 46.1451 50.7278 45.6316 50.4871C45.776 50.7599 46.036 51.9119 45.9204 54.338C45.776 57.3706 41.3956 57.8038 41.877 57.7075C42.2621 57.6305 42.583 57.0015 42.6953 56.6967C42.3487 57.0433 41.6844 57.162 41.3956 57.178C41.475 57.0964 41.6566 56.9206 41.7687 56.8486C40.5402 57.6113 39.2761 57.6109 38.7963 57.515C39.4124 57.438 40.1762 56.8411 40.481 56.5523C39.7879 57.0529 38.7481 57.0818 38.3149 57.0336L38.9888 56.8411C37.5929 54.2899 28.3507 56.7448 23.6333 52.8939C18.916 49.043 20.2638 39.7045 20.7933 37.5384C21.3228 35.3723 21.6116 34.8909 21.6116 34.217C20.3119 30.0291 15.4983 24.2046 12.9952 22.2311C10.4921 20.2575 9.86633 17.0805 10.0107 17.2249C10.1263 17.3404 11.3425 17.7544 11.9362 17.9469Z" fill="url(#paint7_linear_1_1928)"></path>
  </mask>
  <g mask="url(#mask0_1_1928)">
    <path d="M23.0076 12.315C22.3915 9.54237 19.0283 6.08939 17.4238 4.70948C27.7731 4.08371 26.666 18.9097 26.6178 22.7125C26.5793 25.7547 28.1421 28.537 28.9284 29.5478C25.5588 26.9003 23.7778 15.7808 23.0076 12.315Z" fill="url(#paint8_angular_1_1928)"></path>
    <path d="M21.8523 47.0695C21.0051 47.108 21.018 43.3309 21.1303 41.4375L17.1831 54.675L24.8849 57.2262L39.037 56.8411C38.8445 56.4079 38.1609 55.32 36.9671 54.4343C35.4749 53.3272 32.3461 54.675 33.0681 53.9529C33.6457 53.3753 34.4641 53.1346 34.801 53.0865C34.7368 52.7816 33.8864 52.2971 30.9982 52.7977C27.388 53.4235 24.6924 52.8458 23.5371 50.5834C22.6129 48.7735 22.4139 42.9618 22.43 40.2822C21.8908 41.0909 21.8202 45.144 21.8523 47.0695Z" fill="url(#paint9_angular_1_1928)"></path>
    <path d="M38.7963 34.6503L39.037 29.7885C40.1153 29.9811 41.9573 30.7352 42.7435 31.0882L43.8506 32.3397H47.846L48.8087 38.8863L49.7233 49.2356C48.8247 47.2139 46.2478 42.6602 43.1286 40.6192C40.0094 38.5782 38.9407 35.7895 38.7963 34.6503Z" fill="url(#paint10_angular_1_1928)"></path>
  </g>
  <mask id="mask1_1_1928" style="mask-type:alpha" maskUnits="userSpaceOnUse" x="7" y="0" width="51" height="58">
    <path d="M11.9362 17.8507C5.69772 12.6905 7.70019 4.01955 9.48123 0.329102C17.9532 3.40983 22.093 9.08991 23.3445 11.3523C24.596 13.6147 23.537 12.2669 25.5106 21.3165C27.0895 28.5562 33.5494 28.2482 36.582 27.1892C37.7052 26.8201 40.4714 25.36 42.5509 22.4718C45.1503 18.8616 46.0167 11.9781 46.9794 11.3523C52.4188 6.97192 56.7993 6.34614 57.1843 7.02005C57.5694 11.6411 56.4623 10.9672 55.5958 16.7436C54.7294 22.52 51.6487 25.2156 48.9049 27.1892C46.1611 29.1628 45.054 30.7031 44.1394 31.8103C43.2248 32.9174 42.3584 36.8646 43.1767 38.6938C45.5642 40.5037 46.3858 42.9137 46.4981 43.8925C46.7548 44.085 47.2586 45.1344 47.2201 47.7915C47.1816 50.4487 46.1451 50.6316 45.6316 50.3909C45.776 50.6637 46.036 51.8157 45.9204 54.2418C45.776 57.2744 41.3956 57.7076 41.877 57.6113C42.2621 57.5343 42.583 56.9053 42.6953 56.6005C42.3487 56.9471 41.6844 57.0658 41.3956 57.0818C41.475 57.0002 41.6566 56.8244 41.7687 56.7524C40.5402 57.5151 39.2761 57.5148 38.7963 57.4188C39.4124 57.3418 40.1762 56.7449 40.481 56.4561C39.7879 56.9567 38.7481 56.9856 38.3149 56.9374L38.9888 56.7449C37.5929 54.1937 28.3507 56.6486 23.6333 52.7977C18.916 48.9468 20.2638 39.6084 20.7933 37.4422C21.3228 35.2761 21.6116 34.7947 21.6116 34.1208C20.3119 29.9329 15.4983 24.1085 12.9952 22.1349C10.4921 20.1613 9.86633 16.9843 10.0107 17.1287C10.1263 17.2442 11.3425 17.6582 11.9362 17.8507Z" fill="url(#paint11_linear_1_1928)"></path>
  </mask>
  <g mask="url(#mask1_1_1928)">
    <path d="M22.5262 49.0431C23.1424 52.7784 25.8958 54.2899 27.1954 54.5787L17.3756 52.894C17.151 50.5032 16.6728 45.6639 16.5573 45.4328C16.4418 45.2018 12.0165 36.6399 9.81823 32.3879L5.05273 12.4594L5.58223 0.521625L9.62569 -0.58551L10.0589 0.521625C9.49731 1.13135 8.33561 3.43869 8.18157 7.79021C8.02754 12.1417 10.6847 16.3745 12.0325 17.947L10.5403 17.61C10.6847 20.5945 14.1505 22.2792 15.739 24.1566C17.3275 26.0339 21.9486 31.377 22.2374 33.1099C22.4684 34.4963 21.6277 36.7683 21.1784 37.731C22.1411 35.7671 22.8632 35.6291 23.1038 35.8056C22.7508 35.6932 21.8234 36.595 20.9377 41.1006C20.052 45.6061 21.6277 49.1393 22.5262 50.3427C22.3818 49.6207 22.5262 48.1766 22.5262 49.0431Z" fill="url(#paint12_linear_1_1928)"></path>
    <path d="M27.9656 26.7559L27.4843 25.6969L27.9656 23.6271L32.4423 20.4501C34.2394 20.4661 37.3137 20.5752 35.2342 20.8833C33.1547 21.1914 30.7415 23.4185 29.7948 24.4935C30.5971 24.5096 31.9417 24.5609 30.9019 24.6379C29.8622 24.7149 28.5112 26.082 27.9656 26.7559Z" fill="url(#paint13_linear_1_1928)"></path>
    <path d="M37.978 28.0556L37.7854 26.6115L40.2885 22.5681L43.2248 16.888L45.391 7.98276L56.9918 5.81662C57.0079 6.04126 56.9726 6.61569 56.703 7.1163C56.3661 7.74208 54.1037 7.93462 50.686 9.52312C47.2683 11.1116 47.509 11.8337 46.8351 13.3259C46.1612 14.8181 43.7062 22.0386 42.5028 23.964C41.5401 25.5044 39.0851 27.3336 37.978 28.0556Z" fill="url(#paint14_linear_1_1928)"></path>
  </g>
  <path d="M30.3231 51.2091C29.8225 53.0961 30.6761 54.6428 31.4303 55.3007C37.4954 55.3007 38.7149 56.2474 39.0839 56.7929L38.3138 57.0336H39.1802L40.6243 56.5041L39.9023 57.178L38.9395 57.5631H39.6616L40.4799 57.4187L41.8277 56.8892L41.4908 57.178C41.7988 57.1395 42.4535 56.9053 42.7423 56.7929C42.6653 57.024 42.1647 57.531 41.924 57.7557C42.9669 57.7075 45.1876 57.1973 45.7267 55.5414C46.4007 53.4715 45.6305 50.3908 45.7267 50.5352C45.823 50.6796 46.7376 50.6796 46.9783 49.8613C47.6715 47.8203 47.1067 45.2884 46.7376 44.2775L46.3044 44.6626L44.5715 45.8179C42.6621 45.8981 38.67 45.8371 37.9768 44.9514C37.1103 43.8443 35.57 44.1331 33.3076 44.2775C31.0452 44.4219 30.3231 47.5508 30.3231 49.1874C30.3231 50.824 29.5529 51.4951 29.4567 51.4979C29.9188 51.4979 30.2269 51.3054 30.3231 51.2091Z" fill="url(#paint15_radial_1_1928)"></path>
  <path d="M34.3184 46.4918C33.4712 46.5688 33.0348 47.5508 32.9225 48.0321C33.115 47.5315 33.3236 47.3422 33.4038 47.3101C33.3718 47.3743 33.3557 47.6085 33.5483 48.0321C34.5591 49.9576 36.292 50.9203 37.1103 51.2573C37.9287 51.5942 38.4582 51.4979 40.0467 51.2573C41.6352 51.0166 42.1647 51.2573 43.8976 51.2573C45.2839 51.2573 45.9835 50.7759 46.16 50.5352C45.9193 50.4068 45.1299 50.1116 43.8976 49.9576C42.3572 49.765 39.8541 51.4498 38.0731 51.2573C36.292 51.0647 34.3184 49.043 33.8852 48.0321C33.5386 47.2234 34.0296 46.6683 34.3184 46.4918Z" fill="url(#paint16_linear_1_1928)"></path>
  <path d="M43.4161 47.984C38.8721 47.5989 37.8965 45.7056 37.9767 44.807C40.0466 45.1921 40.5761 44.4219 41.9721 44.4219C43.0888 44.4219 44.0098 45.0637 44.3308 45.3847C44.8763 44.6466 46.0059 43.4207 46.1599 44.4219C46.2562 46.7806 43.9457 47.984 43.4161 47.984Z" fill="url(#paint17_linear_1_1928)"></path>
  <path d="M42.0684 46.6362C41.5677 46.6362 40.897 46.187 40.6243 45.9623C41.3174 46.2319 42.6139 46.0747 43.1755 45.9623C43.015 46.187 42.569 46.6362 42.0684 46.6362Z" fill="black"></path>
  <path d="M44.8603 45.8179C45.0689 45.6414 45.4957 45.2692 45.5342 45.1922C45.5823 45.0959 45.7267 45.9142 44.8603 45.8179Z" fill="black"></path>
  <path d="M43.5606 49.9577C43.9072 49.7266 43.5124 48.5457 43.3199 48.0322H43.6569C43.6729 48.6419 43.9264 49.9288 44.2345 50.0058C44.5426 50.0828 43.8975 49.9577 43.5606 49.9577Z" fill="black"></path>
  <path d="M40.6212 50.951C40.5163 50.9915 40.4203 51.0299 40.3354 51.0648C40.3354 51.0232 40.4094 50.9743 40.6212 50.951C41.5285 50.6 43.1036 50.0812 43.8975 50.1502C44.7832 50.2272 45.2935 50.3749 45.4379 50.439V50.8241C45.0528 51.0006 43.8879 51.2959 42.309 51.0648C41.4134 50.9337 40.8988 50.9204 40.6212 50.951Z" fill="url(#paint18_linear_1_1928)"></path>
  <path d="M33.3557 36.5757C32.2967 36.2388 29.6492 36.5757 27.9163 37.1052H29.0234C29.2481 37.9235 30.3905 39.7046 31.8153 39.7046C33.2402 39.7046 34.0777 38.4691 34.3184 37.9235L34.9923 38.3568C34.7035 37.8112 33.9531 36.7658 33.3557 36.5757Z" fill="url(#paint19_linear_1_1928)"></path>
  <path d="M26.8573 39.849C27.1301 40.7636 28.5036 42.7276 31.8153 43.2667C30.8045 43.042 28.3977 42.044 26.8573 39.849Z" fill="url(#paint20_linear_1_1928)"></path>
  <path d="M23.9691 49.1875C24.0814 50.0539 24.643 51.9216 25.9908 52.4607C25.4934 52.0596 24.3927 50.8433 23.9691 49.1875Z" fill="url(#paint21_linear_1_1928)"></path>
  <path d="M34.2222 37.9717C34.4918 37.4711 33.5322 36.8646 33.0188 36.6239H32.4411L31.1415 37.2497C30.6922 37.7631 30.0825 38.9152 31.2377 39.4158C32.6818 40.0416 33.8852 38.5975 34.2222 37.9717Z" fill="#FAF0CD"></path>
  <path d="M32.1042 39.0789C33.298 38.4242 32.8262 37.1374 32.4412 36.5758L29.2642 36.9128C29.3797 37.4134 29.6653 37.9236 29.7937 38.1162C30.0664 38.7098 30.9104 39.7335 32.1042 39.0789Z" fill="url(#paint22_linear_1_1928)"></path>
  <path d="M31.7672 33.4469C30.5873 33.9385 29.4633 35.0925 28.8579 35.8408C30.8872 33.9285 31.5956 33.9335 31.9597 34.0245C32.2678 34.1015 32.9545 34.8589 33.2594 35.2279C32.9128 34.3037 32.1202 33.6555 31.7672 33.4469Z" fill="#8A2101"></path>
  <path d="M34.9923 35.2279C35.3453 35.1477 36.0994 34.9198 36.292 34.6503C36.2278 34.9551 35.878 35.4975 34.9923 35.2279Z" fill="#8A2101"></path>
  <path d="M36.9659 33.8801C37.2708 34.0085 38.0538 33.7838 38.7469 31.8584C38.3779 32.42 37.505 33.6105 36.9659 33.8801Z" fill="#8A2101"></path>
  <path d="M36.3883 43.5555C36.3883 43.0741 36.4653 42.0151 36.7733 41.63C36.6771 42.1435 36.4653 43.2474 36.3883 43.5555Z" fill="#8A2101"></path>
  <path d="M37.9286 45.0959C37.274 44.6337 37.1103 43.2346 37.1103 42.5928C37.2258 43.9791 37.704 44.6466 37.9286 44.807C37.9607 44.9033 38.0056 45.0959 37.9286 45.0959Z" fill="#8A2101"></path>
  <path d="M41.3944 34.6503C40.9131 35.1316 40.3836 36.3832 40.3836 36.4795C40.6884 35.982 41.3367 34.9872 41.4907 34.9872C41.6447 34.9872 42.1967 35.5007 42.4534 35.7574C42.1069 35.1798 41.603 34.7786 41.3944 34.6503Z" fill="#8A2101"></path>
  <path d="M40.3354 38.2124C38.7673 36.3628 38.4581 35.0354 38.7469 33.4469C38.8432 35.95 39.3246 36.335 39.9503 37.3459C40.5761 38.3568 41.3944 39.129 43.4162 40.7636C45.0335 42.0713 46.1118 43.0741 46.4006 43.8443C44.5233 41.6875 42.2128 40.4266 40.3354 38.2124Z" fill="#8A2101"></path>
  <path d="M32.7299 29.6441C32.3833 29.336 31.6869 29.1627 31.3821 29.1146C31.8313 29.0504 32.8358 29.0472 33.2594 29.5478C33.683 30.0484 34.527 30.302 34.896 30.3661C33.9814 30.4624 33.1631 30.0292 32.7299 29.6441Z" fill="#8A2101"></path>
  <path d="M30.9971 38.2124C30.1884 38.3664 30.1788 37.3459 30.275 36.8164L31.9117 36.6239C31.9438 37.0892 31.8058 38.0584 30.9971 38.2124Z" fill="black"></path>
  <path d="M31.1895 37.1052C30.9585 37.3748 31.4141 37.5705 31.6709 37.6347C31.9019 37.4422 31.9276 37.0731 31.9116 36.9127C31.7671 36.8645 31.4206 36.8356 31.1895 37.1052Z" fill="white"></path>
  <path d="M45.9674 17.0324C43.8494 24.5417 41.1538 29.2109 40.1429 30.4624L42.4054 31.2326C43.1755 30.4785 45.7364 28.0556 48.8556 25.5525C52.7547 22.4237 53.4286 18.2839 55.2578 14.5774C56.7211 11.6122 56.1403 9.10595 55.7391 8.22345C54.5838 8.36786 50.059 10.2452 48.8556 10.9672C47.6522 11.6893 47.5078 12.0744 45.9674 17.0324Z" fill="url(#paint23_linear_1_1928)"></path>
  <path d="M46.2353 17.225C44.1173 24.7342 41.566 29.1146 40.5552 30.3662L42.2399 30.8957C43.0101 30.1416 45.3303 28.0075 48.4495 25.5044C52.3486 22.3756 53.0706 18.6209 54.8998 14.9144C56.3631 11.9492 55.9267 9.44292 55.5256 8.56042C54.3703 8.70483 50.3268 10.4377 49.1234 11.1598C47.92 11.8818 47.7756 12.2669 46.2353 17.225Z" fill="url(#paint24_linear_1_1928)"></path>
  <path d="M29.0234 31.5695C27.7911 31.8391 26.2635 34.1529 25.6538 35.276C26.7609 34.3133 28.6864 33.3506 29.5529 33.0136C30.246 32.7441 33.6284 33.126 35.2329 33.3506C35.4415 32.9655 35.8106 32.1761 35.618 32.099C35.3773 32.0028 30.5637 31.2326 29.0234 31.5695Z" fill="url(#paint25_angular_1_1928)"></path>
  <path d="M40.2873 33.3506C40.0177 33.3506 39.854 32.5162 39.8059 32.099C40.4798 31.9225 41.9431 31.6754 42.4052 32.099C42.8674 32.5226 43.0792 33.1099 43.1273 33.3506L42.6941 33.0136C42.0041 33.126 40.5568 33.3506 40.2873 33.3506Z" fill="url(#paint26_angular_1_1928)"></path>
  <path d="M27.3867 25.7932C28.8629 24.1726 32.6625 20.9122 36.0513 20.8351C35.618 20.8618 34.2221 21.6535 34.2702 22.2792C34.3183 22.905 36.5808 21.6053 40.2873 24.4454C39.2603 24.2528 37.091 23.9255 36.6289 24.1566C37.5112 24.6539 38.9101 26.6494 37.4479 30.653C37.4498 30.6858 37.4472 30.6872 37.4472 30.655C37.4474 30.6543 37.4477 30.6536 37.4479 30.653C37.4358 30.441 37.2372 28.9174 34.9441 26.7078C34.7372 27.1058 34.5808 28.0787 35.5938 28.8085C35.6034 28.8143 35.6115 28.82 35.618 28.8258C35.6099 28.82 35.6018 28.8143 35.5938 28.8085C35.0376 28.4735 29.4214 28.0171 27.3867 25.7932Z" fill="url(#paint27_angular_1_1928)"></path>
  <mask id="mask2_1_1928" style="mask-type:alpha" maskUnits="userSpaceOnUse" x="25" y="20" width="19" height="16">
    <path d="M29.0236 31.5695C27.7913 31.8391 26.2638 34.1529 25.6541 35.276C26.7612 34.3133 28.6866 33.3506 29.5531 33.0136C30.2463 32.7441 33.6286 33.126 35.2332 33.3506C35.4418 32.9655 35.8108 32.1761 35.6183 32.099C35.3776 32.0028 30.564 31.2326 29.0236 31.5695Z" fill="url(#paint28_linear_1_1928)"></path>
    <path d="M40.2875 33.3506C40.0179 33.3506 39.8543 32.5162 39.8061 32.099C40.48 31.9225 41.9434 31.6754 42.4055 32.099C42.8676 32.5226 43.0794 33.1099 43.1275 33.3506L42.6943 33.0136C42.0044 33.126 40.5571 33.3506 40.2875 33.3506Z" fill="url(#paint29_linear_1_1928)"></path>
    <path d="M27.387 25.7932C28.8631 24.1726 32.6627 20.9122 36.0515 20.8351C35.6183 20.8618 34.2223 21.6535 34.2705 22.2792C34.3186 22.905 36.581 21.6053 40.2875 24.4454C39.2606 24.2528 37.0912 23.9255 36.6291 24.1566C37.5115 24.6539 38.9103 26.6494 37.4482 30.653C37.45 30.6858 37.4475 30.6872 37.4475 30.655C37.4477 30.6543 37.4479 30.6536 37.4482 30.653C37.4361 30.441 37.2374 28.9174 34.9444 26.7078C34.7374 27.1058 34.581 28.0787 35.594 28.8085C35.6036 28.8143 35.6117 28.82 35.6183 28.8258C35.6101 28.82 35.602 28.8143 35.594 28.8085C35.0379 28.4735 29.4216 28.0171 27.387 25.7932Z" fill="url(#paint30_linear_1_1928)"></path>
  </mask>
  <g mask="url(#mask2_1_1928)">
    <path d="M35.137 27.863C34.0588 28.1326 29.8099 26.9164 27.8203 26.2745L28.783 29.1146C31.8638 30.8796 37.9289 33.6105 37.5439 30.4143C37.1588 27.218 35.6505 26.7399 34.9445 26.9003C35.4579 27.1089 36.2153 27.5935 35.137 27.863Z" fill="#8A3800"></path>
    <path d="M29.4089 31.8584C28.4846 32.0124 27.0662 33.0136 26.4725 33.495L27.1946 30.7512L42.3094 31.4733C42.5019 31.7621 42.8004 32.2916 42.4538 32.099C42.1072 31.9065 40.5765 32.1793 39.8544 32.3397H35.6666C33.9658 32.1151 30.3331 31.7043 29.4089 31.8584Z" fill="url(#paint31_linear_1_1928)"></path>
    <path d="M36.0035 20.787C32.9228 20.864 29.2324 24.5095 27.7722 26.3227L27.1946 25.7932L33.4042 18.9578L40.8653 20.5463C41.8601 22.5681 43.147 26.1879 40.3358 24.4935C36.8218 22.3755 34.5113 22.905 34.415 22.5199C34.3188 22.1348 39.8544 20.6907 36.0035 20.787Z" fill="url(#paint32_linear_1_1928)"></path>
  </g>
  <path d="M23.6321 31.4251C23.5695 31.3104 23.5151 31.1491 23.4698 30.937C22.4928 28.3502 19.5799 25.3684 16.4116 22.4718C13.0421 19.391 15.8821 20.7388 12.1756 14.433C8.46914 8.12713 11.0204 4.42063 11.8868 3.21722C16.2191 4.85386 19.4603 8.80104 20.4551 10.3895C21.6104 12.2829 24.0942 17.8507 23.6321 23.0494C23.2451 27.4033 23.2362 29.844 23.4698 30.937C23.5318 31.1013 23.5861 31.2641 23.6321 31.4251Z" fill="url(#paint33_linear_1_1928)"></path>
  <path d="M23.9 31.6176C23.8066 31.4462 23.6972 31.1567 23.5918 30.742C22.5509 28.2304 20.0771 25.3222 17.0647 22.568C13.6951 19.4873 16.1501 20.9314 12.4436 14.6255C8.73708 8.31963 11.2883 4.61314 12.1548 3.40973C16.3908 5.52773 19.4394 9.23423 20.4342 10.8227C21.5895 12.7161 23.7845 17.8025 23.3224 23.0012C22.9725 26.938 23.2629 29.4486 23.5918 30.742C23.7152 31.0398 23.8184 31.3319 23.9 31.6176Z" fill="url(#paint34_linear_1_1928)"></path>
  <path d="M41.6352 39.1271C42.5594 39.7047 42.7263 38.052 42.6942 37.1535L42.0202 37.0572L40.8168 38.4531C40.7045 38.4371 40.7109 38.5494 41.6352 39.1271Z" fill="url(#paint35_linear_1_1928)"></path>
  <path d="M41.3464 38.8864C41.7314 38.8864 42.2289 37.7311 42.1165 37.0572L40.1429 37.3941C40.175 37.8274 40.9613 38.8864 41.3464 38.8864Z" fill="url(#paint36_linear_1_1928)"></path>
  <path d="M40.9613 38.2604C40.7302 38.2219 40.3194 37.6988 40.1429 37.4421C40.8746 36.6334 42.2128 36.8805 42.7904 37.1051C42.3572 37.0891 41.51 37.0955 41.587 37.2495C41.6833 37.4421 41.2501 38.3085 40.9613 38.2604Z" fill="#1D0700"></path>
  <path d="M41.3945 37.6829C41.2501 37.7791 40.9612 37.394 41.1056 37.2496C41.2212 37.1341 41.4747 37.2015 41.587 37.2496C41.6351 37.4422 41.5389 37.5866 41.3945 37.6829Z" fill="white"></path>
  <defs>
    <linearGradient id="paint0_linear_1_1928" x1="35.2709" y1="0" x2="35.2709" y2="70.5418" gradientUnits="userSpaceOnUse">
      <stop stop-color="#482307"></stop>
      <stop offset="0.473958" stop-color="#996309"></stop>
      <stop offset="1" stop-color="#341601"></stop>
    </linearGradient>
    <radialGradient id="paint1_angular_1_1928" cx="0" cy="0" r="1" gradientUnits="userSpaceOnUse" gradientTransform="translate(35.2709 35.271) rotate(90) scale(34.4155)">
      <stop offset="0.134582" stop-color="#9B6515"></stop>
      <stop offset="0.239583" stop-color="#D8972B"></stop>
      <stop offset="0.410031" stop-color="#FFEB8C"></stop>
      <stop offset="0.552083" stop-color="#FFEEBF"></stop>
      <stop offset="0.673538" stop-color="#9A6115"></stop>
      <stop offset="0.796875" stop-color="#E6A02B"></stop>
    </radialGradient>
    <linearGradient id="paint2_linear_1_1928" x1="35.271" y1="7.69904" x2="35.271" y2="62.8427" gradientUnits="userSpaceOnUse">
      <stop stop-color="#FEEC8E"></stop>
      <stop offset="0.546875" stop-color="#FEEC8E" stop-opacity="0.26"></stop>
      <stop offset="1" stop-color="#FEEC8E"></stop>
    </linearGradient>
    <linearGradient id="paint3_linear_1_1928" x1="35.2709" y1="8.15979" x2="35.2709" y2="62.3822" gradientUnits="userSpaceOnUse">
      <stop stop-color="#482307"></stop>
      <stop offset="0.239583" stop-color="#D8972B"></stop>
      <stop offset="0.796875" stop-color="#E6A02B"></stop>
      <stop offset="1" stop-color="#341601"></stop>
    </linearGradient>
    <linearGradient id="paint4_linear_1_1928" x1="35.2709" y1="8.81775" x2="35.2709" y2="61.7241" gradientUnits="userSpaceOnUse">
      <stop stop-color="#9B6515"></stop>
      <stop offset="0.239583" stop-color="#D8972B"></stop>
      <stop offset="0.552083" stop-color="#FFEEBF"></stop>
      <stop offset="0.796875" stop-color="#E6A02B"></stop>
      <stop offset="1" stop-color="#9A6115"></stop>
    </linearGradient>
    <linearGradient id="paint5_linear_1_1928" x1="32.6735" y1="0.714172" x2="51.3586" y2="38.7419" gradientUnits="userSpaceOnUse">
      <stop stop-color="#E57E13"></stop>
      <stop offset="1" stop-color="#331501"></stop>
    </linearGradient>
    <radialGradient id="paint6_angular_1_1928" cx="0" cy="0" r="1" gradientUnits="userSpaceOnUse" gradientTransform="translate(42.5979 46.0585) rotate(-13.479) scale(19.2059 16.6147)">
      <stop stop-color="#F0D694"></stop>
      <stop offset="0.213542" stop-color="#FFDAA4"></stop>
      <stop offset="0.416667" stop-color="#CC8633"></stop>
      <stop offset="0.708333" stop-color="#FFD894"></stop>
      <stop offset="1" stop-color="#F6D15F"></stop>
    </radialGradient>
    <linearGradient id="paint7_linear_1_1928" x1="32.481" y1="0.425293" x2="32.481" y2="57.7194" gradientUnits="userSpaceOnUse">
      <stop offset="0.354167" stop-color="#F0D694"></stop>
      <stop offset="1" stop-color="#F6D15F"></stop>
    </linearGradient>
    <radialGradient id="paint8_angular_1_1928" cx="0" cy="0" r="1" gradientUnits="userSpaceOnUse" gradientTransform="translate(36.1488 44.9755) rotate(82.5163) scale(14.7834 9.15669)">
      <stop stop-color="#E8AB5F"></stop>
      <stop offset="0.609375" stop-color="#F4BD62"></stop>
      <stop offset="0.692708" stop-color="#FFDA8A"></stop>
      <stop offset="1" stop-color="#DB7C07"></stop>
    </radialGradient>
    <radialGradient id="paint9_angular_1_1928" cx="0" cy="0" r="1" gradientUnits="userSpaceOnUse" gradientTransform="translate(36.1488 44.9755) rotate(82.5163) scale(14.7834 9.15669)">
      <stop stop-color="#E8AB5F"></stop>
      <stop offset="0.609375" stop-color="#F4BD62"></stop>
      <stop offset="0.692708" stop-color="#FFDA8A"></stop>
      <stop offset="1" stop-color="#DB7C07"></stop>
    </radialGradient>
    <radialGradient id="paint10_angular_1_1928" cx="0" cy="0" r="1" gradientUnits="userSpaceOnUse" gradientTransform="translate(36.1488 44.9755) rotate(82.5163) scale(14.7834 9.15669)">
      <stop stop-color="#E8AB5F"></stop>
      <stop offset="0.609375" stop-color="#F4BD62"></stop>
      <stop offset="0.692708" stop-color="#FFDA8A"></stop>
      <stop offset="1" stop-color="#DB7C07"></stop>
    </radialGradient>
    <linearGradient id="paint11_linear_1_1928" x1="32.481" y1="0.329102" x2="32.481" y2="57.6232" gradientUnits="userSpaceOnUse">
      <stop offset="0.354167" stop-color="#F0D694"></stop>
      <stop offset="1" stop-color="#F6D15F"></stop>
    </linearGradient>
    <linearGradient id="paint12_linear_1_1928" x1="31.0239" y1="-0.58551" x2="31.0239" y2="54.5787" gradientUnits="userSpaceOnUse">
      <stop stop-color="white"></stop>
      <stop offset="1" stop-color="#FAF0CD"></stop>
    </linearGradient>
    <linearGradient id="paint13_linear_1_1928" x1="31.0239" y1="-0.58551" x2="31.0239" y2="54.5787" gradientUnits="userSpaceOnUse">
      <stop stop-color="white"></stop>
      <stop offset="1" stop-color="#FAF0CD"></stop>
    </linearGradient>
    <linearGradient id="paint14_linear_1_1928" x1="31.0239" y1="-0.58551" x2="31.0239" y2="54.5787" gradientUnits="userSpaceOnUse">
      <stop stop-color="white"></stop>
      <stop offset="1" stop-color="#FAF0CD"></stop>
    </linearGradient>
    <radialGradient id="paint15_radial_1_1928" cx="0" cy="0" r="1" gradientUnits="userSpaceOnUse" gradientTransform="translate(39.6616 45.7216) rotate(96.072) scale(12.102 15.8572)">
      <stop stop-color="#FAEED2"></stop>
      <stop offset="0.708409" stop-color="#F7C158"></stop>
    </radialGradient>
    <linearGradient id="paint16_linear_1_1928" x1="56.7981" y1="42.1114" x2="32.9225" y2="38.3567" gradientUnits="userSpaceOnUse">
      <stop stop-color="#170600"></stop>
      <stop offset="1" stop-color="#912301"></stop>
    </linearGradient>
    <linearGradient id="paint17_linear_1_1928" x1="42.0676" y1="44.0446" x2="42.0676" y2="47.984" gradientUnits="userSpaceOnUse">
      <stop stop-color="#912301"></stop>
      <stop offset="1" stop-color="#411400"></stop>
    </linearGradient>
    <linearGradient id="paint18_linear_1_1928" x1="44.8603" y1="50.0058" x2="41.587" y2="50.9685" gradientUnits="userSpaceOnUse">
      <stop stop-color="white"></stop>
      <stop offset="1" stop-color="#FAE5B8"></stop>
    </linearGradient>
    <linearGradient id="paint19_linear_1_1928" x1="43.0792" y1="50.5353" x2="26.8573" y2="47.3101" gradientUnits="userSpaceOnUse">
      <stop stop-color="#170600"></stop>
      <stop offset="1" stop-color="#912301"></stop>
    </linearGradient>
    <linearGradient id="paint20_linear_1_1928" x1="43.0792" y1="50.5353" x2="26.8573" y2="47.3101" gradientUnits="userSpaceOnUse">
      <stop stop-color="#170600"></stop>
      <stop offset="1" stop-color="#912301"></stop>
    </linearGradient>
    <linearGradient id="paint21_linear_1_1928" x1="43.0792" y1="50.5353" x2="26.8573" y2="47.3101" gradientUnits="userSpaceOnUse">
      <stop stop-color="#170600"></stop>
      <stop offset="1" stop-color="#912301"></stop>
    </linearGradient>
    <linearGradient id="paint22_linear_1_1928" x1="31.065" y1="36.5758" x2="31.065" y2="39.2899" gradientUnits="userSpaceOnUse">
      <stop stop-color="#C46111"></stop>
      <stop offset="1" stop-color="#EAB337"></stop>
    </linearGradient>
    <linearGradient id="paint23_linear_1_1928" x1="47.9666" y1="8.36786" x2="47.9666" y2="30.7031" gradientUnits="userSpaceOnUse">
      <stop stop-color="#683A00"></stop>
      <stop offset="0.401042" stop-color="#AB5C00"></stop>
      <stop offset="1" stop-color="#7D3D00"></stop>
    </linearGradient>
    <linearGradient id="paint24_linear_1_1928" x1="48.2344" y1="8.56042" x2="48.2344" y2="30.8957" gradientUnits="userSpaceOnUse">
      <stop stop-color="#E6A34F"></stop>
      <stop offset="0.401042" stop-color="#F5D563"></stop>
      <stop offset="1" stop-color="#DE710B" stop-opacity="0.24"></stop>
    </linearGradient>
    <radialGradient id="paint25_angular_1_1928" cx="0" cy="0" r="1" gradientUnits="userSpaceOnUse" gradientTransform="translate(34.3906 28.0556) rotate(158.737) scale(5.70761 6.9062)">
      <stop stop-color="#F3CC5B"></stop>
      <stop offset="0.442708" stop-color="#C25609"></stop>
      <stop offset="1" stop-color="#813204"></stop>
    </radialGradient>
    <radialGradient id="paint26_angular_1_1928" cx="0" cy="0" r="1" gradientUnits="userSpaceOnUse" gradientTransform="translate(34.3906 28.0556) rotate(158.737) scale(5.70761 6.9062)">
      <stop stop-color="#F3CC5B"></stop>
      <stop offset="0.442708" stop-color="#C25609"></stop>
      <stop offset="1" stop-color="#813204"></stop>
    </radialGradient>
    <radialGradient id="paint27_angular_1_1928" cx="0" cy="0" r="1" gradientUnits="userSpaceOnUse" gradientTransform="translate(34.3906 28.0556) rotate(158.737) scale(5.70761 6.9062)">
      <stop stop-color="#F3CC5B"></stop>
      <stop offset="0.442708" stop-color="#C25609"></stop>
      <stop offset="1" stop-color="#813204"></stop>
    </radialGradient>
    <linearGradient id="paint28_linear_1_1928" x1="34.3908" y1="20.8351" x2="34.3908" y2="35.276" gradientUnits="userSpaceOnUse">
      <stop stop-color="#C25609"></stop>
      <stop offset="1" stop-color="#813204"></stop>
    </linearGradient>
    <linearGradient id="paint29_linear_1_1928" x1="34.3908" y1="20.8351" x2="34.3908" y2="35.276" gradientUnits="userSpaceOnUse">
      <stop stop-color="#C25609"></stop>
      <stop offset="1" stop-color="#813204"></stop>
    </linearGradient>
    <linearGradient id="paint30_linear_1_1928" x1="34.3908" y1="20.8351" x2="34.3908" y2="35.276" gradientUnits="userSpaceOnUse">
      <stop stop-color="#C25609"></stop>
      <stop offset="1" stop-color="#813204"></stop>
    </linearGradient>
    <linearGradient id="paint31_linear_1_1928" x1="22.8623" y1="27.7668" x2="44.3311" y2="29.3071" gradientUnits="userSpaceOnUse">
      <stop stop-color="#D77837"></stop>
      <stop offset="0.567609" stop-color="#D37234"></stop>
      <stop offset="1" stop-color="#D77837"></stop>
    </linearGradient>
    <linearGradient id="paint32_linear_1_1928" x1="22.8623" y1="27.7668" x2="44.3311" y2="29.3071" gradientUnits="userSpaceOnUse">
      <stop stop-color="#D77837"></stop>
      <stop offset="0.567609" stop-color="#D37234"></stop>
      <stop offset="1" stop-color="#D77837"></stop>
    </linearGradient>
    <linearGradient id="paint33_linear_1_1928" x1="16.9276" y1="3.21722" x2="16.9276" y2="31.4251" gradientUnits="userSpaceOnUse">
      <stop stop-color="#3D2200"></stop>
      <stop offset="0.401042" stop-color="#D17211"></stop>
      <stop offset="1" stop-color="#B65B06"></stop>
    </linearGradient>
    <linearGradient id="paint34_linear_1_1928" x1="17.1955" y1="3.40973" x2="17.1955" y2="31.6176" gradientUnits="userSpaceOnUse">
      <stop stop-color="#E6A34F"></stop>
      <stop offset="0.401042" stop-color="#F5D563"></stop>
      <stop offset="1" stop-color="#DE710B" stop-opacity="0.24"></stop>
    </linearGradient>
    <linearGradient id="paint35_linear_1_1928" x1="41.7326" y1="37.0572" x2="41.7326" y2="39.2468" gradientUnits="userSpaceOnUse">
      <stop stop-color="#FAF0CD"></stop>
      <stop offset="1" stop-color="#FAF0CD"></stop>
    </linearGradient>
    <linearGradient id="paint36_linear_1_1928" x1="41.1556" y1="37.0572" x2="41.5389" y2="39.3677" gradientUnits="userSpaceOnUse">
      <stop stop-color="#C86815"></stop>
      <stop offset="1" stop-color="#E5A832"></stop>
    </linearGradient>
  </defs>
</svg>
