<?xml version="1.0" encoding="UTF-8"?>
<svg xmlns="http://www.w3.org/2000/svg" width="249" height="76" viewBox="0 0 249 76" fill="none">
  <path fill-rule="evenodd" clip-rule="evenodd" d="M114.13 31.6087L102.266 31.6141L102.258 32.7001L108.883 53.3175L113.283 53.2685L113.629 39.1774L122.196 53.3094L127.436 53.2319L127.552 31.5371L122.818 31.5759L122.74 45.3537L114.13 31.6087Z" fill="white"></path>
  <path fill-rule="evenodd" clip-rule="evenodd" d="M99.709 39.1436L97.4584 45.9789L102.265 46.0349L99.709 39.1436Z" fill="white"></path>
  <path fill-rule="evenodd" clip-rule="evenodd" d="M104.572 53.2874H95.0409L95.9859 50.2028L103.432 50.1748L104.572 53.2874Z" fill="white"></path>
  <path fill-rule="evenodd" clip-rule="evenodd" d="M87.1772 53.3977H92.8177L85.8435 42.6168L92.7569 31.6055L87.2908 31.599L78.48 45.8678L78.4525 31.5894L74.2006 31.6092L74.1177 53.3423L79.0917 53.3148L83.3151 46.8682L87.1772 53.3977Z" fill="white"></path>
  <path fill-rule="evenodd" clip-rule="evenodd" d="M193.657 31.6266H193.991V42.0268C194.014 44.8433 193.701 45.8976 195.618 48.4002C197.904 51.3847 201.451 52.8335 204.322 53.3483C199.354 53.2659 194.402 53.3155 189.433 53.3155V39.2243L182.343 49.918L175.404 39.3772V53.316L170.956 53.3122V31.5728H175.404L182.253 41.3791L188.67 31.6126L193.656 31.6255L193.657 31.6266Z" fill="white"></path>
  <path fill-rule="evenodd" clip-rule="evenodd" d="M220.075 53.315C226.844 51.4946 230.352 48.9079 230.352 40.6684V31.6084L234.823 31.6035L244.457 45.9627V31.6137L249 31.6132L248.996 53.3037H243.793L234.802 39.7773V53.3037C229.901 53.3037 224.972 53.2536 220.076 53.3144L220.075 53.315Z" fill="white"></path>
  <path fill-rule="evenodd" clip-rule="evenodd" d="M140.31 31.6324C143.468 31.6324 146.3 33.0533 148.221 35.3006L145.211 37.9664C144.076 36.7242 142.474 35.9511 140.699 35.9511C137.259 35.9511 134.469 38.8591 134.469 42.4466C134.469 46.0336 137.259 48.9416 140.699 48.9416C141.846 48.9416 142.92 48.6186 143.842 48.0549V42.3276H148.325V42.41L148.345 42.4105V49.1236C146.423 51.4571 143.537 52.9416 140.31 52.9416C134.523 52.9416 129.832 48.1712 129.832 42.2867C129.832 36.4023 134.523 31.6318 140.31 31.6318L140.31 31.6324Z" fill="white"></path>
  <path fill-rule="evenodd" clip-rule="evenodd" d="M154.703 53.3177L149.956 53.3047L157.017 31.6159L161.562 31.5879L168.591 53.323L163.64 53.322L162.87 50.3972L155.607 50.4155L154.703 53.3182L154.703 53.3177ZM161.336 45.6725L156.961 45.6446L159.134 39.2653L161.336 45.6731V45.6725Z" fill="white"></path>
  <path d="M204.237 49.0558C207.822 49.0558 210.729 46.1494 210.729 42.5641C210.729 38.9788 207.822 36.0723 204.237 36.0723C200.652 36.0723 197.745 38.9788 197.745 42.5641C197.745 46.1494 200.652 49.0558 204.237 49.0558Z" fill="white"></path>
  <path d="M219.844 48.8517C223.429 48.8517 226.336 45.9453 226.336 42.36C226.336 38.7747 223.429 35.8682 219.844 35.8682C216.259 35.8682 213.352 38.7747 213.352 42.36C213.352 45.9453 216.259 48.8517 219.844 48.8517Z" fill="white"></path>
  <circle cx="32.4687" cy="45.4788" r="30.2214" fill="#643EBA"></circle>
  <circle cx="32.4687" cy="45.4786" r="28.8853" fill="url(#paint0_linear_1_61)"></circle>
  <circle cx="32.4687" cy="45.4787" r="25.2109" fill="#643EBA" stroke="#643EBA" stroke-width="2.21518"></circle>
  <path d="M4.03586 2.35254L4.51651 1.03075L3.32175 0.596292L2.76919 1.74123L4.03586 2.35254ZM6.83846 22.3554L6.40455 23.6933L7.7349 21.2716L6.83846 22.3554ZM4.64035 21.5311L3.64583 22.5256L3.64583 22.5256L4.64035 21.5311ZM17.884 40.9295H19.2905V40.7163L19.2273 40.5126L17.884 40.9295ZM37.722 66.7574L38.1084 68.1097L39.8007 67.6262L38.9559 66.0823L37.722 66.7574ZM36.9527 66.9772L36.5663 65.6248L36.7974 68.3751L36.9527 66.9772ZM39.4256 66.4277L40.3928 67.4487L38.6021 65.2875L39.4256 66.4277ZM37.5022 67.5267L37.3278 66.1311L37.2264 68.9059L37.5022 67.5267ZM40.9093 66.7574L41.6549 67.95L40.1842 65.5522L40.9093 66.7574ZM40.4697 67.1421L39.4614 66.1615L36.9474 68.7464L40.5477 68.5463L40.4697 67.1421ZM41.9534 66.5925L43.2731 67.0787L40.9589 65.598L41.9534 66.5925ZM41.0192 67.7465L40.7434 66.3674H40.7434L41.0192 67.7465ZM45.6352 63.8998L44.2304 63.8329L45.6352 63.8998ZM45.3055 59.5036L45.9025 58.2301L42.095 56.4454L44.0625 60.1617L45.3055 59.5036ZM47.119 56.5361L48.5253 56.5565L47.119 56.5361ZM46.2947 52.0849L44.8974 52.2453L44.9664 52.8468L45.4508 53.2101L46.2947 52.0849ZM42.5029 46.15L41.2191 46.7244L41.3662 47.0532L41.6533 47.2708L42.5029 46.15ZM58.4942 9.991L59.8958 9.8742L59.87 9.56371L59.7154 9.29319L58.4942 9.991ZM46.8442 14.9368L47.6107 16.116L47.6707 16.077L47.7264 16.0322L46.8442 14.9368ZM41.7885 27.6309L42.9299 28.4527L41.7885 27.6309ZM34.9744 33.0163L34.5353 31.6801L34.523 31.6842L34.5107 31.6884L34.9744 33.0163ZM22.3352 26.312L23.7094 26.0123L22.3352 26.312ZM2.76919 1.74123C1.67491 4.00866 0.528696 7.75365 0.597717 11.7491C0.667283 15.776 1.98167 20.1633 5.94201 23.4392L7.7349 21.2716C4.57334 18.6565 3.4698 15.1489 3.41023 11.7005C3.35011 8.22044 4.36355 4.90947 5.30253 2.96384L2.76919 1.74123ZM7.27236 21.0175C6.94275 20.9106 6.44193 20.7427 6.01297 20.5876C5.79649 20.5094 5.61347 20.4398 5.48446 20.3861C5.41824 20.3585 5.3843 20.3426 5.37421 20.3376C5.36881 20.3349 5.38506 20.3426 5.41355 20.3601C5.42478 20.367 5.52442 20.4261 5.63487 20.5366L3.64583 22.5256C3.84678 22.7266 4.08635 22.8386 4.11553 22.8532C4.20925 22.9001 4.31072 22.9444 4.40381 22.9832C4.59341 23.0621 4.8246 23.1491 5.05644 23.2329C5.52412 23.4021 6.05642 23.5804 6.40455 23.6933L7.27236 21.0175ZM5.63487 20.5366C5.56038 20.4621 5.38093 20.297 5.09489 20.1976C4.74931 20.0775 4.29809 20.0771 3.88873 20.3298C3.5475 20.5404 3.39578 20.8308 3.33779 20.9613C3.2725 21.1082 3.24601 21.2352 3.23419 21.3035C3.19462 21.5321 3.21834 21.7359 3.22363 21.7857C3.24277 21.9656 3.28525 22.1735 3.33723 22.3804C3.4454 22.811 3.63464 23.3945 3.92368 24.0496C4.49774 25.3508 5.51138 27.0377 7.17661 28.3507L8.91825 26.1418C7.72593 25.2017 6.9536 23.9485 6.49729 22.9142C6.27115 22.4017 6.13411 21.9686 6.06539 21.695C6.02893 21.5499 6.02033 21.4839 6.02079 21.4882C6.02122 21.4923 6.02355 21.5144 6.02433 21.5493C6.02483 21.5719 6.02678 21.6627 6.00591 21.7833C5.99566 21.8425 5.97119 21.9621 5.9084 22.1035C5.85289 22.2284 5.70412 22.5149 5.36628 22.7234C4.96032 22.974 4.51295 22.9733 4.17165 22.8547C3.88989 22.7568 3.71517 22.595 3.64583 22.5256L5.63487 20.5366ZM7.17661 28.3507C8.47426 29.3738 10.4796 31.4957 12.3579 33.9867C14.2424 36.4859 15.8712 39.1889 16.5407 41.3464L19.2273 40.5126C18.4131 37.8892 16.5523 34.8771 14.6039 32.2931C12.6492 29.701 10.4782 27.3717 8.91825 26.1418L7.17661 28.3507ZM16.4775 40.9295C16.4775 41.0925 16.4517 41.2489 16.2932 41.7934C16.1385 42.3247 15.8948 43.1142 15.5836 44.3873L18.316 45.0552C18.6093 43.8554 18.8327 43.1337 18.994 42.5797C19.1514 42.0389 19.2905 41.5359 19.2905 40.9295H16.4775ZM15.5836 44.3873C15.2537 45.7368 14.698 49.1627 14.9208 52.8498C15.14 56.4777 16.1375 60.757 19.3026 63.3408L21.0814 61.1617C18.8611 59.3492 17.9353 56.1 17.7286 52.6801C17.5255 49.3196 18.0414 46.1786 18.316 45.0552L15.5836 44.3873ZM19.3026 63.3408C22.3988 65.8682 26.8516 66.2558 30.2938 66.4646C32.1133 66.575 33.6349 66.6305 34.8375 66.8303C35.4285 66.9284 35.8509 67.0487 36.1374 67.1824C36.4162 67.3125 36.4775 67.4129 36.4882 67.4325L38.9559 66.0823C38.5681 65.3737 37.951 64.9246 37.3268 64.6333C36.7102 64.3456 36.0049 64.1727 35.2984 64.0553C33.9062 63.8241 32.1546 63.7594 30.4641 63.6568C26.886 63.4398 23.3707 63.0305 21.0814 61.1617L19.3026 63.3408ZM37.3356 65.405L36.5663 65.6248L37.3391 68.3295L38.1084 68.1097L37.3356 65.405ZM36.7974 68.3751C37.1673 68.4162 37.7144 68.4194 38.2989 68.3263C38.875 68.2346 39.6083 68.0306 40.249 67.5679L38.6021 65.2875C38.4515 65.3962 38.1956 65.4944 37.8568 65.5484C37.5263 65.601 37.2326 65.5932 37.108 65.5793L36.7974 68.3751ZM38.4583 65.4066C38.343 65.5158 38.1082 65.7117 37.8415 65.8816C37.7107 65.9649 37.5899 66.0306 37.4869 66.0757C37.3786 66.1231 37.3272 66.1312 37.3278 66.1311L37.6767 68.9223C38.3433 68.839 38.9513 68.5098 39.3527 68.2541C39.7849 67.9789 40.1601 67.6692 40.3928 67.4487L38.4583 65.4066ZM37.2264 68.9059C38.0773 69.0761 39.8929 69.0439 41.6374 67.9609L40.1537 65.571C39.0932 66.2294 38.0226 66.1965 37.778 66.1476L37.2264 68.9059ZM41.6369 67.9611C41.6434 67.9571 41.6495 67.9533 41.6549 67.95L40.1637 65.5648C40.1599 65.5672 40.1568 65.5691 40.1541 65.5708L41.6369 67.9611ZM40.1842 65.5522C40.1667 65.5627 40.1502 65.5731 40.1346 65.5831L41.6565 67.9488C41.6503 67.9528 41.6429 67.9574 41.6344 67.9625L40.1842 65.5522ZM40.1348 65.583C39.852 65.7648 39.5399 66.0807 39.4614 66.1615L41.4779 68.1226C41.5059 68.0939 41.56 68.0405 41.6157 67.9897C41.6431 67.9647 41.6647 67.9461 41.6793 67.9341C41.6985 67.9184 41.6886 67.9281 41.6563 67.9489L40.1348 65.583ZM40.5477 68.5463C40.8176 68.5313 41.202 68.4748 41.5978 68.3539C41.9715 68.2397 42.5139 68.021 42.9479 67.587L40.9589 65.598C40.9869 65.5699 40.9928 65.5737 40.9517 65.5951C40.9128 65.6153 40.8539 65.6398 40.7758 65.6637C40.6111 65.714 40.4514 65.7344 40.3916 65.7377L40.5477 68.5463ZM40.6336 66.1063C40.6208 66.1412 40.5953 66.2025 40.559 66.2746C40.5227 66.3468 40.4839 66.4129 40.448 66.4646C40.4089 66.5209 40.3935 66.5308 40.4112 66.5154C40.4222 66.5059 40.4526 66.481 40.5036 66.453C40.5553 66.4246 40.636 66.3889 40.7434 66.3674L41.295 69.1257C42.092 68.9663 42.5676 68.3439 42.7581 68.0695C43.0026 67.7176 43.1771 67.3395 43.2731 67.0787L40.6336 66.1063ZM40.7434 66.3674C40.721 66.3718 40.638 66.3882 40.5451 66.4186C40.5182 66.4275 40.4665 66.4452 40.4042 66.4731C40.3751 66.4862 40.1991 66.562 40.0231 66.7246C39.9368 66.8043 39.7318 67.0116 39.6289 67.3574C39.5008 67.7882 39.5891 68.2384 39.8361 68.5811C40.0341 68.8558 40.2755 68.9827 40.3747 69.0298C40.4927 69.0858 40.5934 69.1133 40.6475 69.1264C40.8251 69.1694 40.9753 69.1665 40.9814 69.1665C41.0268 69.1667 41.0648 69.1648 41.0874 69.1635C41.1348 69.1606 41.1794 69.156 41.2146 69.152C41.3546 69.1357 41.5517 69.1032 41.782 69.0536C42.2455 68.9536 42.9239 68.7669 43.638 68.4446C45.0081 67.8261 46.9195 66.4988 47.0401 63.9667L44.2304 63.8329C44.1861 64.7629 43.5147 65.4139 42.4806 65.8808C41.9926 66.101 41.5136 66.2338 41.1889 66.3038C41.025 66.3392 40.9203 66.3543 40.8914 66.3576C40.8843 66.3585 40.895 66.357 40.9174 66.3557C40.9275 66.355 40.9552 66.3535 40.9928 66.3536C41.0116 66.3537 41.0442 66.3542 41.0852 66.3573C41.1163 66.3595 41.2023 66.3665 41.3098 66.3925C41.3631 66.4054 41.4632 66.4328 41.5806 66.4885C41.6793 66.5353 41.9203 66.662 42.1181 66.9364C42.3649 67.2788 42.4532 67.7287 42.3252 68.1592C42.2224 68.5047 42.0177 68.7116 41.9317 68.7909C41.7565 68.9528 41.582 69.0278 41.555 69.0399C41.4947 69.0669 41.4457 69.0836 41.4221 69.0914C41.3728 69.1075 41.3352 69.1166 41.3242 69.1192C41.3086 69.123 41.298 69.1251 41.295 69.1257L40.7434 66.3674ZM47.0401 63.9667C47.1088 62.5241 47.0676 61.4277 46.9797 60.6265C46.8992 59.8918 46.7648 59.254 46.5485 58.8455L44.0625 60.1617C44.0111 60.0646 44.1075 60.2401 44.1836 60.9332C44.2523 61.5599 44.2936 62.5059 44.2304 63.8329L47.0401 63.9667ZM44.7086 60.7771C45.4586 61.1287 46.5808 61.1347 47.4386 60.2256C48.1818 59.4379 48.5017 58.1805 48.5253 56.5565L45.7126 56.5158C45.7029 57.1898 45.63 57.6418 45.5472 57.9317C45.464 58.2229 45.3844 58.3039 45.3926 58.2952C45.4142 58.2723 45.4953 58.2099 45.6268 58.1907C45.738 58.1745 45.8314 58.1968 45.9025 58.2301L44.7086 60.7771ZM48.5253 56.5565C48.5485 54.9554 48.41 53.7714 48.1984 52.9172C48.0927 52.4906 47.9635 52.1249 47.8135 51.8222C47.6814 51.5554 47.471 51.2091 47.1386 50.9598L45.4508 53.2101C45.2649 53.0707 45.2363 52.9566 45.293 53.071C45.3319 53.1495 45.3988 53.3141 45.468 53.5936C45.6063 54.1518 45.7334 55.0835 45.7126 56.5158L48.5253 56.5565ZM47.692 51.9246C47.5246 50.4663 46.4154 47.351 43.3526 45.0292L41.6533 47.2708C44.0418 49.0815 44.8083 51.4688 44.8974 52.2453L47.692 51.9246ZM43.7868 45.5757C43.4978 44.9297 43.4462 43.6332 43.6974 42.146C43.8158 41.4452 43.9888 40.7783 44.1836 40.2303C44.3893 39.6517 44.5809 39.3151 44.6863 39.1875L42.5176 37.396C42.101 37.9004 41.7774 38.601 41.5332 39.2881C41.2781 40.0057 41.0664 40.8328 40.9238 41.6776C40.6529 43.2814 40.5739 45.2822 41.2191 46.7244L43.7868 45.5757ZM44.6863 39.1875C45.7382 37.9142 46.8977 36.2914 49.8636 34.1581L48.221 31.8745C44.9223 34.2472 43.554 36.1415 42.5176 37.396L44.6863 39.1875ZM49.8636 34.1581C53.1369 31.8036 57.0017 28.4333 58.0717 21.3001L55.2899 20.8829C54.3815 26.9384 51.2124 29.7228 48.221 31.8745L49.8636 34.1581ZM58.0717 21.3001C58.5482 18.123 59.076 16.7748 59.4712 15.4482C59.9113 13.9709 60.1285 12.6668 59.8958 9.8742L57.0926 10.1078C57.2995 12.5907 57.1046 13.5397 56.7754 14.6452C56.4012 15.9013 55.8025 17.4656 55.2899 20.8829L58.0717 21.3001ZM59.7154 9.29319C59.3626 8.6759 58.7458 8.47844 58.4402 8.40749C58.0707 8.32171 57.6683 8.30904 57.2791 8.33194C56.4887 8.37844 55.4998 8.58791 54.3803 8.96848C52.1269 9.7345 49.1811 11.249 45.962 13.8413L47.7264 16.0322C50.717 13.6238 53.3764 12.2808 55.2856 11.6317C56.2475 11.3048 56.9794 11.1674 57.4443 11.14C57.5568 11.1334 57.6445 11.1338 57.7089 11.1374C57.7751 11.1412 57.8042 11.1476 57.8041 11.1475C57.803 11.1473 57.7896 11.1442 57.7666 11.1357C57.7439 11.1273 57.7058 11.1115 57.6582 11.0842C57.5673 11.0319 57.4014 10.9134 57.2731 10.6888L59.7154 9.29319ZM46.0777 13.7575C45.5789 14.0817 45.3039 14.6169 45.1621 14.916C44.9853 15.2892 44.823 15.7384 44.6706 16.2064C44.3691 17.132 44.0319 18.3711 43.6677 19.6093C42.9063 22.198 41.9719 24.9692 40.6471 26.8091L42.9299 28.4527C44.5727 26.1711 45.6165 22.9524 46.3663 20.403C46.7578 19.0721 47.0594 17.9551 47.3452 17.0776C47.4864 16.6441 47.6049 16.3299 47.7041 16.1205C47.8384 15.8371 47.8348 15.9704 47.6107 16.116L46.0777 13.7575ZM40.6471 26.8091C38.4656 29.839 35.5668 31.3412 34.5353 31.6801L35.4134 34.3525C36.9464 33.8488 40.3635 32.0171 42.9299 28.4527L40.6471 26.8091ZM34.5107 31.6884C32.9734 32.2253 30.5877 32.5523 28.4579 31.8763C26.4492 31.2387 24.5064 29.6669 23.7094 26.0123L20.961 26.6117C21.9665 31.2221 24.6122 33.6069 27.6069 34.5574C30.4806 35.4695 33.5133 35.0162 35.4381 34.3441L34.5107 31.6884ZM23.7094 26.0123C22.5935 20.8958 22.3388 18.7393 22.1846 17.5395C22.1079 16.9426 22.0421 16.4424 21.8731 15.9189C21.7046 15.397 21.4519 14.9047 21.093 14.2559L18.6316 15.6176C18.9871 16.2602 19.1191 16.5442 19.1962 16.783C19.2728 17.0203 19.3134 17.2653 19.3946 17.898C19.5565 19.1574 19.8238 21.397 20.961 26.6117L23.7094 26.0123ZM21.093 14.2559C19.5415 11.4514 14.5801 4.69023 4.51651 1.03075L3.55521 3.67433C12.8351 7.04883 17.3255 13.2566 18.6316 15.6176L21.093 14.2559Z" fill="url(#paint1_linear_1_61)"></path>
  <path d="M26.3441 37.8541C24.9373 38.1618 23.1935 40.8033 22.4974 42.0855C23.7614 40.9864 25.9595 39.8874 26.9486 39.5027C27.7399 39.195 31.6013 39.6309 33.4331 39.8874C33.6712 39.4477 34.0925 38.5465 33.8727 38.4586C33.5979 38.3487 28.1026 37.4694 26.3441 37.8541Z" fill="#643EBA"></path>
  <path d="M39.2031 39.8874C38.8954 39.8874 38.7086 38.9349 38.6536 38.4586C39.4229 38.2571 41.0935 37.975 41.6211 38.4586C42.1486 38.9422 42.3904 39.6126 42.4453 39.8874L41.9508 39.5027C41.1631 39.6309 39.5109 39.8874 39.2031 39.8874Z" fill="#643EBA"></path>
  <path d="M25.1727 31.5191C26.5088 29.3914 30.4986 25.6875 34.3673 25.5996C33.8727 25.63 32.2791 26.5338 32.334 27.2482C32.389 27.9626 34.9718 26.4789 39.2031 29.7211C38.0308 29.5013 35.5543 29.1276 35.0267 29.3914C36.034 29.9591 37.6309 32.2372 35.9617 36.8078C35.9639 36.8452 35.9609 36.8468 35.9609 36.81C35.9612 36.8093 35.9615 36.8085 35.9617 36.8078C35.9479 36.5658 35.7211 34.8264 33.1034 32.3039C32.8672 32.7581 32.6887 33.8681 33.8438 34.7012C33.8551 34.708 33.8648 34.7149 33.8727 34.7218C33.863 34.7149 33.8533 34.7081 33.8438 34.7012C33.2224 34.3278 27.4932 34.0555 25.1727 31.5191Z" fill="#643EBA"></path>
  <path d="M26.3441 37.8541C24.9373 38.1618 23.1935 40.8033 22.4974 42.0855C23.7614 40.9864 25.9595 39.8874 26.9486 39.5027C27.7399 39.195 31.6013 39.6309 33.4331 39.8874C33.6712 39.4477 34.0925 38.5465 33.8727 38.4586C33.5979 38.3487 28.1026 37.4694 26.3441 37.8541Z" stroke="url(#paint2_linear_1_61)" stroke-width="1.1955"></path>
  <path d="M39.2031 39.8874C38.8954 39.8874 38.7086 38.9349 38.6536 38.4586C39.4229 38.2571 41.0935 37.975 41.6211 38.4586C42.1486 38.9422 42.3904 39.6126 42.4453 39.8874L41.9508 39.5027C41.1631 39.6309 39.5109 39.8874 39.2031 39.8874Z" stroke="url(#paint3_linear_1_61)" stroke-width="1.1955"></path>
  <path d="M25.1727 31.5191C26.5088 29.3914 30.4986 25.6875 34.3673 25.5996C33.8727 25.63 32.2791 26.5338 32.334 27.2482C32.389 27.9626 34.9718 26.4789 39.2031 29.7211C38.0308 29.5013 35.5543 29.1276 35.0267 29.3914C36.034 29.9591 37.6309 32.2372 35.9617 36.8078C35.9639 36.8452 35.9609 36.8468 35.9609 36.81C35.9612 36.8093 35.9615 36.8085 35.9617 36.8078C35.9479 36.5658 35.7211 34.8264 33.1034 32.3039C32.8672 32.7581 32.6887 33.8681 33.8438 34.7012C33.8551 34.708 33.8648 34.7149 33.8727 34.7218C33.863 34.7149 33.8533 34.7081 33.8438 34.7012C33.2224 34.3278 27.4932 34.0555 25.1727 31.5191Z" stroke="url(#paint4_linear_1_61)" stroke-width="1.1955"></path>
  <path d="M4.03586 2.35254L4.27618 1.69165L3.6788 1.47442L3.40252 2.04689L4.03586 2.35254ZM6.83846 22.3554L6.62151 23.0243L7.28668 21.8135L6.83846 22.3554ZM4.64035 21.5311L4.14309 22.0284L4.14309 22.0284L4.64035 21.5311ZM17.884 40.9295H18.5872V40.8229L18.5556 40.7211L17.884 40.9295ZM37.722 66.7574L37.9152 67.4336L38.7613 67.1918L38.3389 66.4198L37.722 66.7574ZM36.9527 66.9772L36.7595 66.301L36.875 67.6761L36.9527 66.9772ZM39.4256 66.4277L39.9092 66.9382L39.0138 65.8576L39.4256 66.4277ZM37.5022 67.5267L37.415 66.8289L37.3643 68.2163L37.5022 67.5267ZM40.9093 66.7574L41.2821 67.3537L40.5467 66.1548L40.9093 66.7574ZM40.4697 67.1421L39.9655 66.6517L38.7085 67.9442L40.5087 67.8442L40.4697 67.1421ZM41.9534 66.5925L42.6133 66.8356L41.4561 66.0953L41.9534 66.5925ZM41.0192 67.7465L40.8813 67.057L41.0192 67.7465ZM45.6352 63.8998L44.9328 63.8664L45.6352 63.8998ZM45.3055 59.5036L45.604 58.8668L43.7003 57.9745L44.684 59.8326L45.3055 59.5036ZM47.119 56.5361L47.8221 56.5463L47.119 56.5361ZM46.2947 52.0849L45.596 52.1651L45.6305 52.4659L45.8727 52.6475L46.2947 52.0849ZM42.5029 46.15L41.861 46.4372L41.9346 46.6016L42.0781 46.7104L42.5029 46.15ZM58.4942 9.991L59.195 9.9326L59.1821 9.77735L59.1048 9.6421L58.4942 9.991ZM46.8442 14.9368L47.2275 15.5264L47.2574 15.5069L47.2853 15.4845L46.8442 14.9368ZM41.7885 27.6309L42.3592 28.0418L41.7885 27.6309ZM34.9744 33.0163L34.7548 32.3481L34.7425 32.3524L34.9744 33.0163ZM22.3352 26.312L23.0223 26.1622L22.3352 26.312ZM3.40252 2.04689C2.34707 4.23387 1.23405 7.87035 1.30085 11.7369C1.36791 15.6193 2.62959 19.7866 6.39024 22.8973L7.28668 21.8135C3.92542 19.0332 2.76917 15.3057 2.7071 11.7126C2.64476 8.10374 3.69139 4.68427 4.66919 2.65819L3.40252 2.04689ZM7.05541 21.6865C6.72117 21.5781 6.21248 21.4076 5.77384 21.249C5.55352 21.1693 5.35846 21.0954 5.21429 21.0354C5.14136 21.005 5.09054 20.982 5.05954 20.9665C4.99626 20.9348 5.06186 20.9581 5.13761 21.0339L4.14309 22.0284C4.25181 22.1371 4.38965 22.204 4.4302 22.2243C4.50302 22.2607 4.5876 22.298 4.67397 22.3339C4.84842 22.4065 5.06757 22.4892 5.29557 22.5716C5.75358 22.7372 6.278 22.9129 6.62151 23.0243L7.05541 21.6865ZM5.13761 21.0339C5.09908 20.9953 5.00817 20.9119 4.86408 20.8619C4.69022 20.8015 4.46365 20.8013 4.25812 20.9282C4.08665 21.034 4.01006 21.1802 3.98044 21.2468C3.94717 21.3217 3.93342 21.3871 3.92712 21.4234C3.90577 21.5468 3.91794 21.6645 3.92292 21.7113C3.93716 21.8452 3.97117 22.0176 4.01927 22.2091C4.11757 22.6004 4.29377 23.1463 4.56709 23.7658C5.11171 25.0003 6.06502 26.5787 7.61202 27.7984L8.48284 26.694C7.17229 25.6607 6.33963 24.2991 5.85389 23.1981C5.61202 22.6499 5.46193 22.1792 5.38335 21.8664C5.34301 21.7058 5.32594 21.6043 5.3215 21.5626C5.31714 21.5216 5.32808 21.5761 5.31298 21.6633C5.30824 21.6907 5.29652 21.7487 5.26574 21.8179C5.23861 21.879 5.16497 22.0213 4.99689 22.125C4.79476 22.2498 4.57204 22.2493 4.40246 22.1904C4.26265 22.1418 4.17647 22.0618 4.14309 22.0284L5.13761 21.0339ZM7.61202 27.7984C8.97523 28.8733 11.022 31.047 12.9194 33.5633C14.8199 36.0837 16.5067 38.864 17.2124 41.1379L18.5556 40.7211C17.7776 38.2141 15.9749 35.2793 14.0424 32.7165C12.1068 30.1497 9.97718 27.8722 8.48284 26.694L7.61202 27.7984ZM17.1808 40.9295C17.1808 41.2033 17.1266 41.4464 16.9684 41.99C16.812 42.527 16.5734 43.2995 16.2667 44.5543L17.6329 44.8882C17.9307 43.6701 18.1591 42.9314 18.3188 42.3831C18.4765 41.8414 18.5872 41.425 18.5872 40.9295H17.1808ZM16.2667 44.5543C15.9506 45.8472 15.4049 49.2019 15.6228 52.8074C15.8388 56.3833 16.8184 60.4051 19.7473 62.796L20.6367 61.7065C18.1802 59.7012 17.2365 56.1944 17.0267 52.7226C16.8187 49.2803 17.3445 46.0681 17.6329 44.8882L16.2667 44.5543ZM19.7473 62.796C22.6417 65.1588 26.8602 65.5518 30.3363 65.7626C32.1237 65.8711 33.7027 65.9289 34.9527 66.1365C35.5726 66.2395 36.0657 66.373 36.4348 66.5451C36.7999 66.7155 37.0001 66.9031 37.1051 67.0949L38.3389 66.4198C38.0455 65.8835 37.5673 65.5216 37.0295 65.2706C36.4954 65.0214 35.8608 64.8616 35.1832 64.7491C33.8384 64.5257 32.1443 64.4633 30.4215 64.3588C26.8774 64.1438 23.1277 63.7399 20.6367 61.7065L19.7473 62.796ZM37.5288 66.0812L36.7595 66.301L37.1459 67.6534L37.9152 67.4336L37.5288 66.0812ZM36.875 67.6761C37.1837 67.7104 37.6674 67.7148 38.1884 67.6318C38.7052 67.5496 39.3191 67.372 39.8373 66.9978L39.0138 65.8576C38.7407 66.0548 38.3655 66.1795 37.9673 66.2429C37.5733 66.3056 37.2163 66.2989 37.0303 66.2783L36.875 67.6761ZM38.9419 65.9171C38.7973 66.0542 38.5274 66.2785 38.2193 66.4747C37.8959 66.6807 37.6092 66.8046 37.415 66.8289L37.5894 68.2245C38.0986 68.1609 38.5995 67.9001 38.9749 67.661C39.3657 67.4121 39.7058 67.1309 39.9092 66.9382L38.9419 65.9171ZM37.3643 68.2163C38.0636 68.3562 39.693 68.3402 41.2664 67.3634L40.5246 66.1685C39.2931 66.933 38.0363 66.9164 37.6401 66.8371L37.3643 68.2163ZM41.2662 67.3635C41.2718 67.3601 41.2771 67.3568 41.2821 67.3537L40.5365 66.1611C40.5323 66.1637 40.5285 66.1661 40.5248 66.1684L41.2662 67.3635ZM40.5467 66.1548C40.5358 66.1614 40.5252 66.168 40.5151 66.1745L41.276 67.3574C41.2753 67.3578 41.2739 67.3587 41.2718 67.36L40.5467 66.1548ZM40.5152 66.1745C40.3098 66.3065 40.0501 66.5648 39.9655 66.6517L40.9738 67.6323C41.0104 67.5947 41.0747 67.5312 41.1422 67.4698C41.1756 67.4393 41.2068 67.4121 41.2336 67.3902C41.2626 67.3664 41.2761 67.3573 41.2759 67.3574L40.5152 66.1745ZM40.5087 67.8442C40.7261 67.8321 41.0543 67.7846 41.3923 67.6813C41.7193 67.5814 42.1348 67.4057 42.4506 67.0898L41.4561 66.0953C41.3764 66.175 41.2148 66.2649 40.9813 66.3362C40.7588 66.4042 40.543 66.4337 40.4306 66.4399L40.5087 67.8442ZM41.2935 66.3494C41.2454 66.4801 41.1471 66.6908 41.0255 66.8658C40.9653 66.9525 40.9121 67.0119 40.8719 67.0467C40.8291 67.0839 40.8317 67.0669 40.8813 67.057L41.1571 68.4361C41.6655 68.3344 42.004 67.9225 42.1806 67.6683C42.3841 67.3754 42.5332 67.053 42.6133 66.8356L41.2935 66.3494ZM40.8813 67.057C40.8615 67.0609 40.8141 67.0705 40.7644 67.0868C40.7501 67.0915 40.7235 67.1006 40.6919 67.1148C40.6768 67.1216 40.5885 67.1597 40.5003 67.2412C40.457 67.2811 40.3544 67.3848 40.303 67.5578C40.2389 67.7734 40.2831 67.9985 40.4066 68.1699C40.5057 68.3074 40.6265 68.3709 40.6762 68.3945C40.7353 68.4225 40.7859 68.4363 40.8131 68.4429C40.9027 68.4646 40.9792 68.4633 40.9842 68.4633C41.0089 68.4634 41.0305 68.4624 41.0449 68.4615C41.0749 68.4597 41.1056 68.4566 41.1338 68.4534C41.2461 68.4404 41.4201 68.4122 41.6337 68.3661C42.0625 68.2736 42.6911 68.1005 43.3487 67.8036C44.6348 67.223 46.2362 66.0648 46.3377 63.9333L44.9328 63.8664C44.8694 65.1969 43.8881 66.017 42.77 66.5217C42.2255 66.7675 41.6966 66.9138 41.3372 66.9913C41.1567 67.0302 41.0289 67.0497 40.9722 67.0562C40.9581 67.0578 40.955 67.0579 40.9599 67.0576C40.9619 67.0575 40.9731 67.0568 40.9899 67.0569C40.9983 67.0569 41.0138 67.0571 41.0336 67.0586C41.0484 67.0597 41.0909 67.0631 41.1442 67.076C41.1707 67.0824 41.2206 67.096 41.2792 67.1238C41.3284 67.1472 41.4488 67.2104 41.5476 67.3476C41.671 67.5187 41.7151 67.7436 41.6511 67.9587C41.5998 68.1314 41.4974 68.2348 41.4546 68.2743C41.3672 68.3551 41.2803 68.3924 41.2673 68.3982C41.2377 68.4115 41.2138 68.4196 41.2029 68.4232C41.1664 68.4351 41.1425 68.439 41.1571 68.4361L40.8813 67.057ZM46.3377 63.9333C46.405 62.5196 46.3638 61.4607 46.2807 60.7032C46.2012 59.9789 46.0764 59.4566 45.927 59.1746L44.684 59.8326C44.6828 59.8303 44.7159 59.9014 44.7602 60.0917C44.8015 60.2694 44.8458 60.5212 44.8826 60.8565C44.9561 61.5269 44.9974 62.5105 44.9328 63.8664L46.3377 63.9333ZM45.007 60.1403C45.5286 60.3848 46.3109 60.3961 46.9271 59.743C47.486 59.1506 47.7994 58.1166 47.8221 56.5463L46.4158 56.5259C46.3946 57.989 46.0943 58.5762 45.9041 58.7778C45.771 58.9188 45.6686 58.8971 45.604 58.8668L45.007 60.1403ZM47.8221 56.5463C47.8447 54.9874 47.7091 53.8665 47.5158 53.0863C47.4192 52.6965 47.3056 52.3811 47.1834 52.1344C47.0701 51.9057 46.9195 51.6745 46.7166 51.5224L45.8727 52.6475C45.8164 52.6053 45.8476 52.6063 45.9232 52.7588C45.9898 52.8934 46.0723 53.1082 46.1506 53.4245C46.3072 54.0567 46.4372 55.0514 46.4158 56.5259L47.8221 56.5463ZM46.9933 52.0048C46.8455 50.717 45.822 47.7836 42.9277 45.5896L42.0781 46.7104C44.6352 48.6489 45.4874 51.2182 45.596 52.1651L46.9933 52.0048ZM43.1448 45.8629C42.7668 45.0178 42.7479 43.5453 43.004 42.0289C43.1284 41.2921 43.3111 40.5851 43.521 39.9947C43.7363 39.389 43.9609 38.9614 44.1441 38.7396L43.0598 37.8439C42.721 38.2541 42.4304 38.8637 42.1958 39.5236C41.9557 40.1988 41.7538 40.9859 41.6172 41.7947C41.3512 43.3694 41.3048 45.194 41.861 46.4372L43.1448 45.8629ZM44.1441 38.7396C45.1921 37.471 46.4038 35.7804 49.453 33.5872L48.6317 32.4454C45.4162 34.7583 44.1 36.5846 43.0598 37.8439L44.1441 38.7396ZM49.453 33.5872C52.6557 31.2834 56.3467 28.0596 57.3762 21.1958L55.9853 20.9872C55.0366 27.3121 51.6935 30.243 48.6317 32.4454L49.453 33.5872ZM57.3762 21.1958C57.8618 17.9587 58.4073 16.5564 58.7973 15.2474C59.2096 13.8631 59.4213 12.6478 59.195 9.9326L57.7934 10.0494C58.0068 12.6097 57.8063 13.6475 57.4493 14.8459C57.0699 16.1197 56.4889 17.63 55.9853 20.9872L57.3762 21.1958ZM59.1048 9.6421C58.901 9.28536 58.5294 9.15014 58.2811 9.0925C58.0009 9.02745 57.6719 9.01328 57.3204 9.03396C56.6113 9.07567 55.6867 9.26713 54.6066 9.63429C52.4393 10.3711 49.5651 11.8427 46.4031 14.389L47.2853 15.4845C50.333 13.0301 53.064 11.6442 55.0593 10.9659C56.0606 10.6256 56.8567 10.4701 57.403 10.438C57.6791 10.4218 57.8614 10.4389 57.9631 10.4625C58.0967 10.4935 57.9776 10.5043 57.8836 10.3399L59.1048 9.6421ZM46.4609 14.3471C46.1428 14.5539 45.9375 14.9219 45.7976 15.2171C45.6402 15.5494 45.4889 15.9648 45.3392 16.4242C45.0417 17.3378 44.7133 18.5464 44.3424 19.8077C43.5839 22.3866 42.6221 25.2697 41.2178 27.22L42.3592 28.0418C43.9225 25.8706 44.939 22.7638 45.6917 20.2046C46.0763 18.8969 46.3868 17.7494 46.6765 16.8598C46.8206 16.4177 46.95 16.0698 47.0686 15.8194C47.2048 15.532 47.2708 15.4982 47.2275 15.5264L46.4609 14.3471ZM41.2178 27.22C38.9401 30.3835 35.9117 31.9681 34.7548 32.3482L35.1939 33.6844C36.6015 33.2219 39.889 31.4726 42.3592 28.0418L41.2178 27.22ZM34.7425 32.3524C33.1084 32.923 30.5609 33.2816 28.2452 32.5466C25.9899 31.8307 23.8714 30.0557 23.0223 26.1622L21.6481 26.4619C22.6014 30.8333 25.0715 33.0148 27.8197 33.8871C30.5074 34.7402 33.3783 34.3185 35.2062 33.6802L34.7425 32.3524ZM23.0223 26.1622C21.9011 21.0211 21.6432 18.8438 21.4871 17.6291C21.4093 17.0233 21.3497 16.5868 21.2039 16.1349C21.0582 15.6838 20.8357 15.2436 20.4777 14.5964L19.247 15.2772C19.6033 15.9213 19.7655 16.2574 19.8654 16.567C19.9651 16.8758 20.012 17.1846 20.0921 17.8084C20.252 19.0528 20.5162 21.2717 21.6481 26.4619L23.0223 26.1622ZM20.4777 14.5964C18.9875 11.9027 14.1438 5.27988 4.27618 1.69165L3.79553 3.01343C13.2713 6.45918 17.8795 12.8053 19.247 15.2772L20.4777 14.5964Z" fill="#643EBA"></path>
  <path d="M6.83724 22.3027C-0.284656 16.4117 2.00139 6.51286 4.03464 2.2998C13.7064 5.81679 18.4323 12.3012 19.8611 14.884C21.2899 17.4668 20.0809 15.9281 22.334 26.2593C24.1364 34.5242 31.5111 34.1725 34.9732 32.9635C36.2554 32.5422 39.4133 30.8753 41.7873 27.5782C44.7548 23.4567 45.7439 15.5984 46.843 14.884C53.0527 9.88331 58.0534 9.16892 58.493 9.93826C58.9326 15.2137 57.6687 14.4444 56.6796 21.0388C55.6904 27.6331 52.1734 30.7105 49.0411 32.9635C45.9088 35.2166 44.6449 36.9751 43.6008 38.239C42.5567 39.5029 41.5675 44.0091 42.5017 46.0973C45.2274 48.1635 46.1652 50.9148 46.2935 52.0322C46.5865 52.252 47.1617 53.45 47.1177 56.4834C47.0738 59.5168 45.8905 59.7256 45.3043 59.4509C45.4692 59.7623 45.7659 61.0775 45.634 63.8471C45.4692 67.3091 40.4684 67.8037 41.018 67.6938C41.4576 67.6059 41.824 66.8878 41.9522 66.5398C41.5565 66.9354 40.7982 67.071 40.4684 67.0893C40.559 66.9962 40.7664 66.7955 40.8943 66.7132C39.4918 67.5839 38.0487 67.5835 37.501 67.474C38.2044 67.3861 39.0763 66.7046 39.4243 66.3749C38.633 66.9464 37.446 66.9794 36.9515 66.9245L37.7208 66.7046C36.1272 63.7921 25.5762 66.5947 20.1908 62.1985C14.8054 57.8023 16.3441 47.1414 16.9486 44.6685C17.5531 42.1956 17.8828 41.6461 17.8828 40.8768C16.3991 36.0959 10.9038 29.4466 8.04622 27.1935C5.18866 24.9404 4.47428 21.3135 4.63914 21.4784C4.77102 21.6103 6.15949 22.0829 6.83724 22.3027Z" fill="url(#paint5_linear_1_61)"></path>
  <path d="M45.9934 21.4784C43.5754 30.0511 40.6629 35.0518 39.5089 36.4806L41.4323 37.0851C42.3115 36.2241 44.9603 33.7879 48.5212 30.9303C52.9724 27.3584 53.7967 23.0721 55.8849 18.8407C57.5555 15.4556 57.0572 12.5944 56.5993 11.5869C55.2804 11.7518 50.6644 13.7301 49.2906 14.5544C47.9167 15.3787 47.7519 15.8183 45.9934 21.4784Z" fill="#643EBA"></path>
  <path d="M20.4952 37.9094C20.3885 37.7138 20.2637 37.3832 20.1433 36.9098C18.9551 34.0425 16.1309 30.7226 12.6919 27.5783C8.84523 24.0613 11.6478 25.7099 7.41643 18.5111C3.18506 11.3122 6.09756 7.08085 7.08671 5.70703C11.9226 8.12496 15.4029 12.3563 16.5386 14.1698C17.8575 16.3313 20.3633 22.138 19.8358 28.0729C19.4363 32.5671 19.7679 35.4332 20.1433 36.9098C20.2842 37.2498 20.4021 37.5833 20.4952 37.9094Z" fill="#643EBA"></path>
  <path d="M27.828 60.2752C27.2564 62.4294 28.2309 64.1952 29.0918 64.9462C36.0159 64.9462 37.4081 66.027 37.8294 66.6498L36.9501 66.9245H37.9393L39.5879 66.3201L38.7636 67.0894L37.6645 67.529H38.4888L39.423 67.3642L40.9617 66.7597L40.577 67.0894C40.9287 67.0454 41.6761 66.778 42.0058 66.6498C41.9179 66.9135 41.3464 67.4924 41.0716 67.7488C42.2622 67.6939 44.7974 67.1114 45.4129 65.221C46.1822 62.858 45.303 59.341 45.4129 59.5059C45.5228 59.6707 46.5669 59.6707 46.8416 58.7365C47.633 56.4065 46.9882 53.516 46.5669 52.362L46.0723 52.8016L44.094 54.1205C41.9142 54.2121 37.3568 54.1425 36.5654 53.1314C35.5763 51.8674 33.8178 52.1972 31.235 52.362C28.6522 52.5269 27.828 56.0988 27.828 57.9672C27.828 59.8356 26.9487 60.6017 26.8388 60.6049C27.3663 60.6049 27.718 60.3851 27.828 60.2752Z" fill="url(#paint6_linear_1_61)" stroke="#643EBA" stroke-width="0.351617"></path>
  <path d="M32.3889 54.8896C31.4217 54.9776 30.9235 56.0986 30.7952 56.6481C31.015 56.0766 31.2532 55.8605 31.3448 55.8238C31.3081 55.8971 31.2898 56.1646 31.5096 56.6481C32.6636 58.8463 34.6419 59.9453 35.5761 60.33C36.5103 60.7147 37.1148 60.6048 38.9283 60.33C40.7417 60.0552 41.3462 60.33 43.3245 60.33C44.9071 60.33 45.7058 59.7805 45.9073 59.5057C45.6325 59.3592 44.7313 59.0221 43.3245 58.8463C41.566 58.6264 38.7085 60.5498 36.6752 60.33C34.6419 60.1102 32.3889 57.8022 31.8943 56.6481C31.4986 55.7249 32.0592 55.0911 32.3889 54.8896Z" fill="#643EBA"></path>
  <path d="M42.7751 56.5935C37.5875 56.1539 36.4738 53.9924 36.5654 52.9666C38.9284 53.4063 39.5329 52.527 41.1265 52.527C42.4014 52.527 43.4529 53.2597 43.8192 53.6261C44.442 52.7835 45.7316 51.384 45.9074 52.527C46.0173 55.2197 43.3796 56.5935 42.7751 56.5935Z" fill="#643EBA"></path>
  <path d="M41.2365 55.0546C40.665 55.0546 39.8993 54.5417 39.5879 54.2852C40.3792 54.593 41.8593 54.4135 42.5004 54.2852C42.3172 54.5417 41.808 55.0546 41.2365 55.0546Z" fill="#643EBA"></path>
  <path d="M44.4238 54.1204C44.6619 53.9189 45.1491 53.4939 45.1931 53.406C45.2481 53.2961 45.4129 54.2303 44.4238 54.1204Z" fill="#643EBA"></path>
  <path d="M42.94 58.8463C43.3357 58.5825 42.8851 57.2344 42.6653 56.6482H43.0499C43.0683 57.3443 43.3577 58.8134 43.7094 58.9013C44.0611 58.9892 43.3247 58.8463 42.94 58.8463Z" fill="#643EBA"></path>
  <path d="M41.2365 55.0546C40.665 55.0546 39.8993 54.5417 39.5879 54.2852C40.3792 54.593 41.8593 54.4135 42.5004 54.2852C42.3172 54.5417 41.808 55.0546 41.2365 55.0546Z" fill="url(#paint7_linear_1_61)"></path>
  <path d="M44.4238 54.1204C44.6619 53.9189 45.1491 53.4939 45.1931 53.406C45.2481 53.2961 45.4129 54.2303 44.4238 54.1204Z" fill="url(#paint8_linear_1_61)"></path>
  <path d="M39.5844 59.9803C39.4646 60.0267 39.355 60.0704 39.2582 60.1103C39.2582 60.0628 39.3426 60.007 39.5844 59.9803C40.6202 59.5797 42.4184 58.9874 43.3247 59.0662C44.3358 59.1541 44.9183 59.3227 45.0832 59.3959V59.8355C44.6435 60.037 43.3137 60.3741 41.5112 60.1103C40.4888 59.9607 39.9013 59.9454 39.5844 59.9803Z" fill="url(#paint9_linear_1_61)"></path>
  <path d="M31.29 43.5693C30.081 43.1846 27.0586 43.5693 25.0803 44.1738H26.3442C26.6006 45.108 27.9049 47.1412 29.5315 47.1412C31.1581 47.1412 32.1143 45.7308 32.389 45.108L33.1584 45.6025C32.8286 44.9797 31.9719 43.7863 31.29 43.5693Z" fill="#643EBA"></path>
  <path d="M23.8713 47.3061C24.1827 48.3502 25.7507 50.5923 29.5315 51.2077C28.3775 50.9513 25.6298 49.8119 23.8713 47.3061Z" fill="#643EBA"></path>
  <path d="M20.5741 57.967C20.7024 58.9561 21.3435 61.0883 22.8822 61.7038C22.3143 61.2458 21.0577 59.8573 20.5741 57.967Z" fill="#643EBA"></path>
  <path d="M32.2791 45.1632C32.5868 44.5917 31.4914 43.8993 30.9053 43.6245H30.2458L28.7621 44.3389C28.2492 44.9251 27.5531 46.2403 28.872 46.8118C30.5206 47.5262 31.8944 45.8776 32.2791 45.1632Z" fill="url(#paint10_linear_1_61)"></path>
  <path d="M29.8611 46.4269C31.224 45.6795 30.6854 44.2105 30.2458 43.5693L26.6189 43.954C26.7508 44.5255 27.0769 45.108 27.2234 45.3278C27.5348 46.0056 28.4983 47.1742 29.8611 46.4269Z" fill="url(#paint11_linear_1_61)" stroke="#643EBA" stroke-width="0.246132"></path>
  <path d="M29.4765 39.9975C28.1295 40.5587 26.8463 41.8762 26.1552 42.7305C28.4719 40.5474 29.2806 40.553 29.6963 40.657C30.048 40.7449 30.832 41.6095 31.18 42.0308C30.7844 40.9757 29.8795 40.2357 29.4765 39.9975Z" fill="#643EBA"></path>
  <path d="M33.1583 42.0308C33.5613 41.9392 34.4222 41.6791 34.6421 41.3713C34.5688 41.7194 34.1695 42.3385 33.1583 42.0308Z" fill="#643EBA"></path>
  <path d="M35.4114 40.4921C35.7594 40.6386 36.6533 40.3822 37.4447 38.1841C37.0233 38.8252 36.0269 40.1844 35.4114 40.4921Z" fill="#643EBA"></path>
  <path d="M34.752 51.5376C34.752 50.9881 34.8399 49.7791 35.1916 49.3395C35.0817 49.9257 34.8399 51.1859 34.752 51.5376Z" fill="#643EBA"></path>
  <path d="M36.5105 53.2961C35.7631 52.7686 35.5763 51.1713 35.5763 50.4386C35.7081 52.0212 36.254 52.7832 36.5105 52.9664C36.5471 53.0763 36.5984 53.2961 36.5105 53.2961Z" fill="#643EBA"></path>
  <path d="M40.4671 41.3713C39.9175 41.9209 39.3131 43.3497 39.3131 43.4596C39.6611 42.8917 40.4011 41.756 40.577 41.756C40.7528 41.756 41.3829 42.3422 41.676 42.6353C41.2804 41.9758 40.7052 41.5179 40.4671 41.3713Z" fill="#643EBA"></path>
  <path d="M39.2581 45.4379C37.4679 43.3264 37.1149 41.811 37.4447 39.9975C37.5546 42.8551 38.1041 43.2947 38.8185 44.4487C39.5329 45.6027 40.4671 46.4842 42.7751 48.3504C44.6215 49.8433 45.8525 50.9881 46.1822 51.8674C44.039 49.4052 41.4013 47.9657 39.2581 45.4379Z" fill="#643EBA"></path>
  <path d="M30.5755 35.6562C30.1799 35.3045 29.3849 35.1067 29.0369 35.0518C29.5497 34.9785 30.6964 34.9748 31.18 35.5463C31.6636 36.1178 32.6271 36.4073 33.0484 36.4805C32.0043 36.5904 31.0701 36.0959 30.5755 35.6562Z" fill="#643EBA"></path>
  <path d="M28.5973 45.438C27.6741 45.6138 27.6631 44.4488 27.773 43.8443L29.6414 43.6245C29.678 44.1557 29.5205 45.2621 28.5973 45.438Z" fill="#643EBA"></path>
  <path d="M28.817 44.1737C28.5532 44.4815 29.0735 44.705 29.3665 44.7782C29.6303 44.5584 29.6596 44.1371 29.6413 43.9539C29.4765 43.899 29.0808 43.866 28.817 44.1737Z" fill="url(#paint12_linear_1_61)"></path>
  <path d="M26.3441 37.8541C24.9373 38.1618 23.1935 40.8033 22.4974 42.0855C23.7614 40.9864 25.9595 39.8874 26.9486 39.5027C27.7399 39.195 31.6013 39.6309 33.4331 39.8874C33.6712 39.4477 34.0925 38.5465 33.8727 38.4586C33.5979 38.3487 28.1026 37.4694 26.3441 37.8541Z" fill="#643EBA"></path>
  <path d="M39.2031 39.8874C38.8954 39.8874 38.7086 38.9349 38.6536 38.4586C39.4229 38.2571 41.0935 37.975 41.6211 38.4586C42.1486 38.9422 42.3904 39.6126 42.4453 39.8874L41.9508 39.5027C41.1631 39.6309 39.5109 39.8874 39.2031 39.8874Z" fill="#643EBA"></path>
  <path d="M25.1727 31.5191C26.5088 29.3914 30.4986 25.6875 34.3673 25.5996C33.8727 25.63 32.2791 26.5338 32.334 27.2482C32.389 27.9626 34.9718 26.4789 39.2031 29.7211C38.0308 29.5013 35.5543 29.1276 35.0267 29.3914C36.034 29.9591 37.6309 32.2372 35.9617 36.8078C35.9639 36.8452 35.9609 36.8468 35.9609 36.81C35.9612 36.8093 35.9615 36.8085 35.9617 36.8078C35.9479 36.5658 35.7211 34.8264 33.1034 32.3039C32.8672 32.7581 32.6887 33.8681 33.8438 34.7012C33.8551 34.708 33.8648 34.7149 33.8727 34.7218C33.863 34.7149 33.8533 34.7081 33.8438 34.7012C33.2224 34.3278 27.4932 34.0555 25.1727 31.5191Z" fill="#643EBA"></path>
  <path d="M40.7419 46.4821C41.797 47.1416 41.9875 45.2548 41.9509 44.229L41.1815 44.1191L39.8077 45.7128C39.6795 45.6945 39.6868 45.8227 40.7419 46.4821Z" fill="url(#paint13_linear_1_61)" stroke="#643EBA" stroke-width="0.0703233"></path>
  <path d="M40.4122 46.2074C40.8519 46.2074 41.4197 44.8885 41.2915 44.1191L39.0384 44.5038C39.075 44.9984 39.9726 46.2074 40.4122 46.2074Z" fill="url(#paint14_linear_1_61)" stroke="#643EBA" stroke-width="0.0703233"></path>
  <path d="M39.9726 45.4926C39.7088 45.4486 39.2399 44.8515 39.0384 44.5584C39.8737 43.6352 41.4014 43.9173 42.0608 44.1737C41.5662 44.1554 40.5991 44.1627 40.687 44.3386C40.7969 44.5584 40.3023 45.5476 39.9726 45.4926Z" fill="#643EBA"></path>
  <path d="M40.4671 44.8335C40.3023 44.9434 39.9726 44.5038 40.1374 44.3389C40.2693 44.2071 40.5587 44.284 40.687 44.3389C40.7419 44.5587 40.632 44.7236 40.4671 44.8335Z" fill="url(#paint15_linear_1_61)"></path>
  <defs>
    <linearGradient id="paint0_linear_1_61" x1="32.4687" y1="16.5933" x2="32.4687" y2="74.3639" gradientUnits="userSpaceOnUse">
      <stop stop-color="white"></stop>
      <stop offset="1" stop-color="#CC89FB"></stop>
    </linearGradient>
    <linearGradient id="paint1_linear_1_61" x1="30.2927" y1="2.35254" x2="30.2927" y2="67.7601" gradientUnits="userSpaceOnUse">
      <stop stop-color="white"></stop>
      <stop offset="1" stop-color="#CC89FB"></stop>
    </linearGradient>
    <linearGradient id="paint2_linear_1_61" x1="32.4714" y1="25.5996" x2="32.4714" y2="42.0855" gradientUnits="userSpaceOnUse">
      <stop stop-color="white"></stop>
      <stop offset="1" stop-color="#CC89FB"></stop>
    </linearGradient>
    <linearGradient id="paint3_linear_1_61" x1="32.4714" y1="25.5996" x2="32.4714" y2="42.0855" gradientUnits="userSpaceOnUse">
      <stop stop-color="white"></stop>
      <stop offset="1" stop-color="#CC89FB"></stop>
    </linearGradient>
    <linearGradient id="paint4_linear_1_61" x1="32.4714" y1="25.5996" x2="32.4714" y2="42.0855" gradientUnits="userSpaceOnUse">
      <stop stop-color="white"></stop>
      <stop offset="1" stop-color="#CC89FB"></stop>
    </linearGradient>
    <linearGradient id="paint5_linear_1_61" x1="30.2915" y1="2.2998" x2="30.2915" y2="67.7074" gradientUnits="userSpaceOnUse">
      <stop stop-color="white"></stop>
      <stop offset="1" stop-color="#CC89FB"></stop>
    </linearGradient>
    <linearGradient id="paint6_linear_1_61" x1="37.0274" y1="52.1973" x2="37.0274" y2="67.7488" gradientUnits="userSpaceOnUse">
      <stop stop-color="white"></stop>
      <stop offset="1" stop-color="#CC89FB"></stop>
    </linearGradient>
    <linearGradient id="paint7_linear_1_61" x1="42.4131" y1="53.397" x2="42.4131" y2="55.0546" gradientUnits="userSpaceOnUse">
      <stop stop-color="white"></stop>
      <stop offset="1" stop-color="#CC89FB"></stop>
    </linearGradient>
    <linearGradient id="paint8_linear_1_61" x1="42.4131" y1="53.397" x2="42.4131" y2="55.0546" gradientUnits="userSpaceOnUse">
      <stop stop-color="white"></stop>
      <stop offset="1" stop-color="#CC89FB"></stop>
    </linearGradient>
    <linearGradient id="paint9_linear_1_61" x1="42.1707" y1="59.0591" x2="42.1707" y2="60.2072" gradientUnits="userSpaceOnUse">
      <stop stop-color="white"></stop>
      <stop offset="1" stop-color="#CC89FB"></stop>
    </linearGradient>
    <linearGradient id="paint10_linear_1_61" x1="30.223" y1="43.6245" x2="30.223" y2="46.9875" gradientUnits="userSpaceOnUse">
      <stop stop-color="white"></stop>
      <stop offset="1" stop-color="#CC89FB"></stop>
    </linearGradient>
    <linearGradient id="paint11_linear_1_61" x1="28.6748" y1="43.5693" x2="28.6748" y2="46.6678" gradientUnits="userSpaceOnUse">
      <stop stop-color="white"></stop>
      <stop offset="1" stop-color="#CC89FB"></stop>
    </linearGradient>
    <linearGradient id="paint12_linear_1_61" x1="29.1952" y1="43.918" x2="29.1952" y2="44.7782" gradientUnits="userSpaceOnUse">
      <stop stop-color="white"></stop>
      <stop offset="1" stop-color="#CC89FB"></stop>
    </linearGradient>
    <linearGradient id="paint13_linear_1_61" x1="40.8531" y1="44.1191" x2="40.8531" y2="46.6188" gradientUnits="userSpaceOnUse">
      <stop stop-color="white"></stop>
      <stop offset="1" stop-color="#CC89FB"></stop>
    </linearGradient>
    <linearGradient id="paint14_linear_1_61" x1="40.1742" y1="44.1191" x2="40.1742" y2="46.2074" gradientUnits="userSpaceOnUse">
      <stop stop-color="white"></stop>
      <stop offset="1" stop-color="#CC89FB"></stop>
    </linearGradient>
    <linearGradient id="paint15_linear_1_61" x1="40.3969" y1="44.2661" x2="40.3969" y2="44.8509" gradientUnits="userSpaceOnUse">
      <stop stop-color="white"></stop>
      <stop offset="1" stop-color="#CC89FB"></stop>
    </linearGradient>
  </defs>
</svg>
